<svg width="36" height="36" viewBox="0 0 36 36" fill="none" xmlns="http://www.w3.org/2000/svg">
<path d="M8.99896 28.6581C8.50109 28.3262 8.07292 27.903 7.57173 27.3039C7.31161 26.9855 7.05381 26.6652 6.79836 26.343C6.02998 25.3888 5.54538 24.9473 5.04585 24.7664C4.83567 24.6969 4.64153 24.586 4.47486 24.4402C4.3082 24.2945 4.17238 24.1169 4.0754 23.9178C3.97842 23.7188 3.92224 23.5024 3.91018 23.2813C3.89812 23.0603 3.93041 22.839 4.00515 22.6306C4.0799 22.4222 4.19558 22.2309 4.3454 22.0679C4.49521 21.9049 4.67613 21.7735 4.8775 21.6815C5.07886 21.5894 5.29661 21.5386 5.5179 21.5321C5.7392 21.5255 5.95958 21.5632 6.16606 21.6431C7.41407 22.0912 8.25879 22.8629 9.39726 24.2785C9.24126 24.0843 9.96151 24.9871 10.1159 25.173C10.4312 25.5497 10.6635 25.7788 10.8461 25.8999C11.1846 26.1273 11.8219 26.2252 12.7546 26.1323C12.7944 25.4983 12.9106 24.8826 13.0898 24.315C8.16419 23.1102 5.37611 19.9337 5.37611 13.7004C5.37611 11.6425 5.99015 9.79043 7.13194 8.23706C6.77015 6.75341 6.82492 4.9594 7.63313 2.9397C7.72485 2.71124 7.86625 2.50604 8.04709 2.33898C8.22792 2.17193 8.44366 2.0472 8.67866 1.97383C8.81309 1.934 8.88943 1.91575 9.02385 1.89583C10.3565 1.69004 12.2384 2.17796 14.6913 3.71472C16.153 3.37253 17.6494 3.20101 19.1506 3.20358C20.6641 3.20358 22.1693 3.37617 23.6049 3.71472C26.0561 2.16634 27.943 1.67843 29.2839 1.89583C29.4256 1.91796 29.5462 1.94562 29.6457 1.97881C29.8761 2.05478 30.0871 2.18034 30.2637 2.34664C30.4403 2.51295 30.5783 2.71595 30.668 2.94136C31.4762 4.95941 31.531 6.75175 31.1692 8.23541C32.316 9.78877 32.925 11.6292 32.925 13.7004C32.925 19.9354 30.1469 23.1019 25.2213 24.3084C25.4287 24.9971 25.5366 25.7655 25.5366 26.5986C25.5366 27.7022 25.5333 28.7544 25.525 29.9343C25.525 30.2497 25.5217 30.5882 25.5167 31.106C25.8894 31.1871 26.2229 31.3942 26.4608 31.6923C26.6988 31.9904 26.8268 32.3614 26.8233 32.7429C26.8198 33.1243 26.685 33.4929 26.4416 33.7866C26.1982 34.0803 25.861 34.2812 25.4868 34.3554C23.5949 34.7322 22.1942 33.4726 22.1942 31.8246L22.1976 31.0828L22.2059 29.9128C22.2142 28.7394 22.2191 27.6939 22.2191 26.5986C22.2191 25.4419 21.9138 24.6868 21.5122 24.3399C20.4152 23.394 20.9711 21.595 22.41 21.434C27.3323 20.8814 29.6059 18.9745 29.6059 13.7004C29.6059 12.1155 29.0881 10.8061 28.0907 9.71077C27.8808 9.47999 27.7402 9.19472 27.685 8.88769C27.6298 8.58065 27.6623 8.26428 27.7787 7.97485C28.0542 7.28779 28.1704 6.38664 27.9364 5.2963L27.9198 5.30128C27.1049 5.53196 26.0776 6.03149 24.8363 6.87621C24.6361 7.01206 24.4087 7.1025 24.1699 7.1412C23.9311 7.1799 23.6867 7.16593 23.4539 7.10026C22.0531 6.71186 20.6058 6.51699 19.1522 6.52106C17.6752 6.52106 16.2115 6.71689 14.8506 7.10192C14.6189 7.16681 14.3758 7.18054 14.1383 7.14214C13.9007 7.10374 13.6743 7.01413 13.4748 6.87953C12.2252 6.03813 11.1946 5.54026 10.3714 5.30792C10.1341 6.39162 10.2519 7.28945 10.5258 7.97485C10.6416 8.26421 10.6736 8.58034 10.6182 8.88706C10.5627 9.19377 10.422 9.47866 10.2121 9.70911C9.22134 10.7961 8.69692 12.1288 8.69692 13.6987C8.69692 18.9629 10.9722 20.8814 15.8696 21.4323C17.3051 21.5933 17.8644 23.3857 16.7741 24.3333C16.4538 24.6121 16.0605 25.5481 16.0605 26.5969V31.8246C16.0605 33.4593 14.6764 34.6874 12.8077 34.3604C12.4289 34.2939 12.085 34.0979 11.8347 33.806C11.5844 33.514 11.4433 33.1442 11.4355 32.7597C11.4276 32.3752 11.5535 31.9999 11.7917 31.698C12.0299 31.3961 12.3656 31.1862 12.7413 31.1043V29.4614C11.2311 29.5626 9.98475 29.3153 9.00062 28.6565" fill="black"/>
</svg>
