<svg width="24" height="24" viewBox="0 0 24 24" fill="none" xmlns="http://www.w3.org/2000/svg">
<g clip-path="url(#clip0_116_60)">
<path d="M12.0001 7.13098C11.3607 7.13098 10.7276 7.25692 10.1368 7.50161C9.54608 7.7463 9.00933 8.10495 8.5572 8.55708C8.10507 9.00921 7.74642 9.54596 7.50173 10.1367C7.25704 10.7274 7.1311 11.3606 7.1311 12C7.1311 12.6394 7.25704 13.2725 7.50173 13.8633C7.74642 14.454 8.10507 14.9908 8.5572 15.4429C9.00933 15.895 9.54608 16.2537 10.1368 16.4984C10.7276 16.743 11.3607 16.869 12.0001 16.869C13.2914 16.869 14.5299 16.356 15.443 15.4429C16.3561 14.5298 16.8691 13.2913 16.8691 12C16.8691 10.7086 16.3561 9.47019 15.443 8.55708C14.5299 7.64396 13.2914 7.13098 12.0001 7.13098ZM8.6311 12C8.6311 11.1065 8.98605 10.2495 9.61786 9.61774C10.2497 8.98593 11.1066 8.63098 12.0001 8.63098C12.8936 8.63098 13.7505 8.98593 14.3823 9.61774C15.0142 10.2495 15.3691 11.1065 15.3691 12C15.3691 12.8935 15.0142 13.7504 14.3823 14.3822C13.7505 15.014 12.8936 15.369 12.0001 15.369C11.1066 15.369 10.2497 15.014 9.61786 14.3822C8.98605 13.7504 8.6311 12.8935 8.6311 12Z" fill="#101828"/>
<path d="M14.6942 2.01473C13.9037 -0.670273 10.0967 -0.670273 9.30623 2.01473L9.16523 2.49323C9.11002 2.68065 9.01357 2.85335 8.88295 2.99866C8.75233 3.14397 8.59085 3.25821 8.41034 3.333C8.22983 3.4078 8.03487 3.44125 7.83976 3.4309C7.64464 3.42056 7.45431 3.36668 7.28273 3.27323L6.84473 3.03323C4.38473 1.69523 1.69523 4.38623 3.03473 6.84473L3.27323 7.28273C3.36668 7.45431 3.42056 7.64464 3.4309 7.83976C3.44125 8.03487 3.4078 8.22983 3.333 8.41034C3.25821 8.59085 3.14397 8.75233 2.99866 8.88295C2.85335 9.01357 2.68065 9.11002 2.49323 9.16523L2.01473 9.30623C-0.670273 10.0967 -0.670273 13.9037 2.01473 14.6942L2.49323 14.8352C2.68065 14.8904 2.85335 14.9869 2.99866 15.1175C3.14397 15.2481 3.25821 15.4096 3.333 15.5901C3.4078 15.7706 3.44125 15.9656 3.4309 16.1607C3.42056 16.3558 3.36668 16.5461 3.27323 16.7177L3.03323 17.1557C1.69523 19.6157 4.38473 22.3067 6.84473 20.9657L7.28273 20.7272C7.45431 20.6338 7.64464 20.5799 7.83976 20.5696C8.03487 20.5592 8.22983 20.5927 8.41034 20.6674C8.59085 20.7422 8.75233 20.8565 8.88295 21.0018C9.01357 21.1471 9.11002 21.3198 9.16523 21.5072L9.30623 21.9857C10.0967 24.6707 13.9037 24.6707 14.6942 21.9857L14.8352 21.5072C14.8904 21.3198 14.9869 21.1471 15.1175 21.0018C15.2481 20.8565 15.4096 20.7422 15.5901 20.6674C15.7706 20.5927 15.9656 20.5592 16.1607 20.5696C16.3558 20.5799 16.5461 20.6338 16.7177 20.7272L17.1557 20.9672C19.6157 22.3067 22.3067 19.6142 20.9657 17.1557L20.7272 16.7177C20.6338 16.5461 20.5799 16.3558 20.5696 16.1607C20.5592 15.9656 20.5927 15.7706 20.6674 15.5901C20.7422 15.4096 20.8565 15.2481 21.0018 15.1175C21.1471 14.9869 21.3198 14.8904 21.5072 14.8352L21.9857 14.6942C24.6707 13.9037 24.6707 10.0967 21.9857 9.30623L21.5072 9.16523C21.3198 9.11002 21.1471 9.01357 21.0018 8.88295C20.8565 8.75233 20.7422 8.59085 20.6674 8.41034C20.5927 8.22983 20.5592 8.03487 20.5696 7.83976C20.5799 7.64464 20.6338 7.45431 20.7272 7.28273L20.9672 6.84473C22.3067 4.38473 19.6142 1.69523 17.1557 3.03473L16.7177 3.27323C16.5461 3.36668 16.3558 3.42056 16.1607 3.4309C15.9656 3.44125 15.7706 3.4078 15.5901 3.333C15.4096 3.25821 15.2481 3.14397 15.1175 2.99866C14.9869 2.85335 14.8904 2.68065 14.8352 2.49323L14.6942 2.01473ZM10.7447 2.43923C11.1137 1.18673 12.8867 1.18673 13.2557 2.43923L13.3967 2.91773C13.5153 3.31985 13.7223 3.69036 14.0026 4.00208C14.283 4.31379 14.6295 4.55882 15.0168 4.7192C15.4042 4.87957 15.8225 4.95123 16.2411 4.92891C16.6598 4.90659 17.0681 4.79087 17.4362 4.59023L17.8727 4.35023C19.0187 3.72773 20.2727 4.98023 19.6487 6.12773L19.4102 6.56573C19.2099 6.93387 19.0944 7.34217 19.0724 7.76071C19.0503 8.17925 19.1221 8.59743 19.2827 8.9846C19.4432 9.37178 19.6883 9.71813 20 9.99829C20.3117 10.2785 20.6822 10.4853 21.0842 10.6037L21.5612 10.7447C22.8137 11.1137 22.8137 12.8867 21.5612 13.2557L21.0827 13.3967C20.6806 13.5153 20.3101 13.7223 19.9984 14.0026C19.6867 14.283 19.4416 14.6295 19.2813 15.0168C19.1209 15.4042 19.0492 15.8225 19.0715 16.2411C19.0939 16.6598 19.2096 17.0681 19.4102 17.4362L19.6502 17.8727C20.2727 19.0187 19.0202 20.2727 17.8727 19.6487L17.4362 19.4102C17.068 19.2096 16.6596 19.0939 16.2409 19.0717C15.8221 19.0495 15.4038 19.1213 15.0164 19.2818C14.629 19.4423 14.2825 19.6875 14.0022 19.9994C13.722 20.3113 13.5151 20.682 13.3967 21.0842L13.2557 21.5612C12.8867 22.8137 11.1137 22.8137 10.7447 21.5612L10.6037 21.0827C10.4851 20.6808 10.2782 20.3105 9.99792 19.9989C9.71769 19.6874 9.37131 19.4425 8.98416 19.2821C8.59701 19.1217 8.17889 19.05 7.76043 19.0722C7.34197 19.0944 6.93377 19.2099 6.56573 19.4102L6.12773 19.6502C4.98173 20.2727 3.72773 19.0202 4.35173 17.8727L4.59023 17.4362C4.79115 17.0681 4.9071 16.6596 4.92957 16.2408C4.95203 15.822 4.88044 15.4034 4.72004 15.0159C4.55965 14.6284 4.31452 14.2816 4.00264 14.0012C3.69077 13.7208 3.32006 13.5137 2.91773 13.3952L2.43923 13.2542C1.18673 12.8852 1.18673 11.1122 2.43923 10.7432L2.91773 10.6022C3.31944 10.4836 3.68954 10.2766 4.00094 9.99651C4.31234 9.71638 4.55717 9.37017 4.71751 8.98321C4.87784 8.59625 4.94962 8.17834 4.9276 7.76006C4.90558 7.34177 4.79031 6.93371 4.59023 6.56573L4.35023 6.12773C3.72773 4.98173 4.98023 3.72773 6.12773 4.35173L6.56573 4.59023C6.93377 4.79059 7.34197 4.90609 7.76043 4.92826C8.17889 4.95043 8.59701 4.87871 8.98416 4.71835C9.37131 4.558 9.71769 4.31307 9.99792 4.00151C10.2782 3.68995 10.4851 3.31964 10.6037 2.91773L10.7447 2.43923Z" fill="#101828"/>
</g>
<defs>
<clipPath id="clip0_116_60">
<rect width="24" height="24" fill="white"/>
</clipPath>
</defs>
</svg>
