<svg width="26" height="26" viewBox="0 0 26 26" fill="none" xmlns="http://www.w3.org/2000/svg">
<path d="M6.5 6.5C5.20707 6.5 3.96709 7.01361 3.05285 7.92785C2.13861 8.84209 1.625 10.0821 1.625 11.375V21.125H11.375V11.375C11.375 10.0821 10.8614 8.84209 9.94715 7.92785C9.03291 7.01361 7.79293 6.5 6.5 6.5ZM6.5 4.875H19.5C21.2239 4.875 22.8772 5.55982 24.0962 6.77881C25.3152 7.99779 26 9.65109 26 11.375V21.125C26 21.556 25.8288 21.9693 25.524 22.274C25.2193 22.5788 24.806 22.75 24.375 22.75H1.625C1.19402 22.75 0.780698 22.5788 0.475952 22.274C0.171205 21.9693 0 21.556 0 21.125V11.375C0 9.65109 0.68482 7.99779 1.90381 6.77881C3.12279 5.55982 4.77609 4.875 6.5 4.875ZM10.7997 6.5C11.4913 7.11001 12.0452 7.86019 12.4245 8.70071C12.8039 9.54122 13.0001 10.4528 13 11.375V21.125H24.375V11.375C24.375 10.0821 23.8614 8.84209 22.9471 7.92785C22.0329 7.01361 20.7929 6.5 19.5 6.5H10.7997Z" fill="#101828"/>
<path d="M19.1636 13.8125H14.625V12.1875H22.75C22.9655 12.1875 23.1722 12.2731 23.3245 12.4255C23.4769 12.5778 23.5625 12.7845 23.5625 13V14.625C23.5625 14.8405 23.4769 15.0472 23.3245 15.1995C23.1722 15.3519 22.9655 15.4375 22.75 15.4375H21.125C21.0182 15.4377 20.9125 15.4168 20.8138 15.3761C20.7151 15.3354 20.6253 15.2757 20.5497 15.2003L19.1636 13.8125ZM8.125 11.375C8.125 12.272 7.397 11.375 6.5 11.375C5.603 11.375 4.875 12.272 4.875 11.375C4.875 10.944 5.0462 10.5307 5.35095 10.226C5.6557 9.92121 6.06902 9.75 6.5 9.75C6.93098 9.75 7.3443 9.92121 7.64905 10.226C7.95379 10.5307 8.125 10.944 8.125 11.375Z" fill="#101828"/>
</svg>
