<svg width="48" height="48" viewBox="0 0 48 48" fill="none" xmlns="http://www.w3.org/2000/svg">
<g clip-path="url(#clip0_245_147)">
<path d="M21.1549 42.3832C15.1125 42.3832 10.1969 37.4676 10.1969 31.4253C10.1969 27.7131 12.1085 24.2337 15.2199 22.2207L14.1073 16.4272C8.28943 19.161 4.57935 24.951 4.57935 31.4247C4.57935 40.5639 12.0152 48.0003 21.1549 48.0003C25.6304 48.0003 29.9427 46.1632 33.0602 42.9438L30.663 36.867C28.7302 40.2263 25.1042 42.3832 21.1549 42.3832Z" fill="black"/>
<path d="M43.9137 43.7926L36.3252 24.5498C35.9876 23.1735 34.7619 22.2104 33.3446 22.2083L25.1792 22.1977L24.6084 19.2262H33.4079C35.1056 19.2262 36.4859 17.8458 36.4859 16.1497C36.4859 14.4526 35.1045 13.0722 33.4079 13.0722H23.4258L22.9179 10.4272L23.1931 10.1428C24.282 9.01847 24.8817 7.54082 24.8817 5.98258C24.8817 2.68359 22.1981 0 18.8986 0C15.5996 0 12.9165 2.68359 12.9165 5.98258C12.9165 8.36253 14.3283 10.5159 16.5136 11.4679L16.8811 11.6275L19.6143 25.8535C19.625 25.9032 19.6351 25.9417 19.6458 25.9813L19.735 26.2885C19.7507 26.3326 19.7669 26.3797 19.7852 26.4248L19.8298 26.5267C19.8577 26.588 19.8825 26.6418 19.9094 26.6935L19.9595 26.7842C19.99 26.8374 20.0229 26.8932 20.0574 26.9459L20.1091 27.0235C20.1466 27.0772 20.1871 27.1315 20.2292 27.1837L20.2759 27.2425C20.323 27.2982 20.3722 27.352 20.4223 27.4042L20.4614 27.4447C20.5288 27.5132 20.5896 27.5674 20.652 27.6201L20.6981 27.6612C20.7518 27.7048 20.8269 27.7605 20.9039 27.8138L20.9805 27.8619C21.0286 27.8928 21.0823 27.9273 21.1396 27.9582L21.206 27.9922C21.2927 28.0358 21.3434 28.0621 21.3956 28.0855L21.4874 28.123C21.5578 28.1509 21.61 28.1706 21.6638 28.1884L21.7687 28.2208C21.8311 28.2396 21.8934 28.2543 21.9563 28.2695L22.05 28.2903C22.1225 28.3039 22.1991 28.3156 22.2761 28.3237L22.3359 28.3328C22.4211 28.3415 22.5139 28.3475 22.6076 28.3485L22.6512 28.3475L31.2084 28.3582L38.1891 46.0494C38.6565 47.2325 39.7808 47.998 41.0527 47.998C41.4374 47.998 41.8176 47.9245 42.1821 47.781C43.7591 47.1611 44.5362 45.3707 43.9137 43.7926Z" fill="black"/>
</g>
<defs>
<clipPath id="clip0_245_147">
<rect width="48" height="48" fill="white"/>
</clipPath>
</defs>
</svg>
