<svg width="48" height="48" viewBox="0 0 48 48" fill="none" xmlns="http://www.w3.org/2000/svg">
<path d="M9.69246 2.40002H38.3076C42.6463 2.40002 46.1539 5.9076 46.1539 10.2463V37.7538C46.1539 42.0925 42.6463 45.6 38.3076 45.6H9.69246C5.35377 45.6 1.84619 42.0925 1.84619 37.7538V10.2463C1.84619 5.9076 5.35377 2.40002 9.69246 2.40002Z" fill="#470137"/>
<path d="M25.1448 13.7538L19.6063 22.8923L25.5138 32.5846C25.5508 32.6583 25.5691 32.7324 25.5508 32.8061C25.5324 32.8799 25.4584 32.8245 25.3476 32.8432H21.12C20.8248 32.8432 20.6216 32.8245 20.4924 32.64C20.1048 31.8646 19.6984 31.1076 19.3107 30.3322C18.923 29.5755 18.4986 28.8001 18.0555 28.006C17.6124 27.212 17.1694 26.4186 16.7263 25.6061H16.6893C16.3016 26.3999 15.8768 27.194 15.4524 27.9877C15.0306 28.7736 14.6121 29.5613 14.1969 30.3509C13.7722 31.1263 13.3478 31.92 12.9231 32.677C12.8494 32.8615 12.7016 32.8799 12.4984 32.8799H8.43695C8.36322 32.8799 8.30783 32.9169 8.30783 32.8245C8.29956 32.79 8.29856 32.7541 8.30487 32.7192C8.31119 32.6843 8.32469 32.6511 8.34452 32.6216L14.0862 23.2063L8.49233 13.7355C8.43695 13.6614 8.4186 13.5877 8.45529 13.5506C8.49233 13.4953 8.56606 13.4769 8.64014 13.4769H12.8307C12.9231 13.4769 13.0155 13.4953 13.0893 13.514C13.163 13.5506 13.2184 13.606 13.2738 13.6801C13.6248 14.4738 14.0308 15.2676 14.4555 16.0616C14.8986 16.8554 15.323 17.6308 15.7848 18.4061C16.2278 19.1815 16.6339 19.9569 17.0216 20.7506H17.0586C17.4463 19.9386 17.8523 19.1445 18.2584 18.3691C18.6644 17.5937 19.0891 16.8183 19.5139 16.043C19.9386 15.2676 20.3446 14.4738 20.7507 13.7168C20.7694 13.6431 20.8061 13.5693 20.8614 13.5323C20.9355 13.4953 21.0093 13.4769 21.1017 13.4953H24.9969C25.0188 13.4903 25.0414 13.4897 25.0635 13.4936C25.0855 13.4974 25.1066 13.5056 25.1255 13.5176C25.1444 13.5297 25.1607 13.5453 25.1735 13.5637C25.1864 13.5821 25.1954 13.6028 25.2001 13.6247C25.2185 13.6431 25.1814 13.7168 25.1448 13.7538ZM33.674 33.2309C32.3077 33.2492 30.9414 32.9723 29.7046 32.4001C28.5416 31.8646 27.5817 30.9785 26.9171 29.8891C26.2338 28.7631 25.9014 27.3601 25.9014 25.6799C25.8831 24.314 26.2338 22.966 26.9171 21.7846C27.6184 20.5845 28.634 19.5876 29.8524 18.923C31.1446 18.203 32.6954 17.8523 34.5231 17.8523C34.6155 17.8523 34.7446 17.8523 34.9108 17.8706C35.0769 17.8893 35.2614 17.8893 35.483 17.9077V12.074C35.483 11.9445 35.5384 11.8708 35.6678 11.8708H39.4153C39.5077 11.8524 39.5814 11.9261 39.6001 11.9999V29.6122C39.6001 29.9445 39.6185 30.3138 39.6368 30.7199C39.6739 31.1076 39.6922 31.4769 39.7109 31.7909C39.7109 31.92 39.6555 32.0308 39.5261 32.0861C38.5591 32.4926 37.5498 32.7898 36.5169 32.9723C35.5754 33.1385 34.6339 33.2309 33.674 33.2309ZM35.483 29.5385V21.4153C35.3168 21.3786 35.1507 21.3415 34.9845 21.3232C34.7821 21.3014 34.5788 21.2891 34.3753 21.2861C33.6553 21.2861 32.9353 21.434 32.2894 21.7663C31.6585 22.0805 31.1183 22.5507 30.7199 23.1322C30.3139 23.7231 30.1107 24.5168 30.1107 25.477C30.0949 26.1249 30.2015 26.77 30.4246 27.3785C30.6091 27.8769 30.8861 28.32 31.2554 28.6893C31.6113 29.0291 32.041 29.2819 32.5109 29.4277C33.0094 29.5938 33.5262 29.6676 34.043 29.6676C34.3199 29.6676 34.5785 29.6492 34.8184 29.6309C35.0586 29.6492 35.2614 29.6122 35.483 29.5385Z" fill="#FF61F6"/>
</svg>
