<svg width="48" height="48" viewBox="0 0 48 48" fill="none" xmlns="http://www.w3.org/2000/svg">
<path d="M1.55829 2.41724C1.14938 2.41313 0.755571 2.57151 0.463381 2.8576C0.17119 3.14368 0.00452316 3.53406 2.5475e-07 3.94296C-4.82499e-05 4.03193 0.00682982 4.12077 0.0205718 4.20867L6.54857 43.831C6.62996 44.3158 6.87957 44.7565 7.25358 45.0757C7.62758 45.3948 8.10207 45.572 8.59371 45.5761H39.912C40.2813 45.581 40.6401 45.4532 40.9232 45.216C41.2063 44.9789 41.395 44.648 41.4549 44.2835L47.9777 4.20696C48.0437 3.80475 47.9479 3.39277 47.7112 3.06097C47.4745 2.72918 47.1161 2.50453 46.7143 2.4361C46.6309 2.42305 46.5467 2.41617 46.4623 2.41553L1.55829 2.41724ZM29.0469 31.0612H19.0509L16.344 16.9287H31.4691L29.0469 31.0612Z" fill="#2684FF"/>
<path d="M45.9018 16.927H31.4692L29.0469 31.0596H19.0509L7.24805 45.0859C7.61997 45.4139 8.09786 45.5965 8.59376 45.6001H39.9206C40.2899 45.605 40.6487 45.4773 40.9318 45.2401C41.215 45.0029 41.4036 44.672 41.4635 44.3076L45.9018 16.927Z" fill="url(#paint0_linear_177_224)"/>
<defs>
<linearGradient id="paint0_linear_177_224" x1="48.5505" y1="20.3529" x2="24.7035" y2="38.969" gradientUnits="userSpaceOnUse">
<stop offset="0.18" stop-color="#0052CC"/>
<stop offset="1" stop-color="#2684FF"/>
</linearGradient>
</defs>
</svg>
