<svg width="48" height="48" viewBox="0 0 48 48" fill="none" xmlns="http://www.w3.org/2000/svg">
<g clip-path="url(#clip0_55_252)">
<path d="M9.94534 4.84814C7.20177 4.84814 5.17155 7.2495 5.26246 9.85371C5.3498 12.3556 5.23635 15.5961 4.42062 18.2386C3.60245 20.8889 2.21855 22.5677 -0.041748 22.7833V25.2168C2.21855 25.4324 3.60245 27.1112 4.42062 29.7616C5.23635 32.4041 5.3498 35.6443 5.26246 38.1463C5.17155 40.7502 7.20177 43.1519 9.94572 43.1519H38.0582C40.802 43.1519 42.8316 40.7505 42.7407 38.1463C42.6536 35.6445 42.7668 32.4041 43.5826 29.7616C44.4013 27.1114 45.7814 25.4322 48.0417 25.2168V22.7833C45.7814 22.5677 44.4013 20.8889 43.5827 18.2386C42.7668 15.5965 42.6536 12.3557 42.7407 9.85371C42.8316 7.24988 40.802 4.84814 38.0582 4.84814H9.94497H9.94534ZM32.5574 28.4265C32.5574 32.0125 29.8827 34.1871 25.444 34.1871H17.8878C17.6717 34.187 17.4644 34.1011 17.3117 33.9483C17.1589 33.7955 17.073 33.5883 17.073 33.3722V14.6279C17.073 14.4117 17.1588 14.2044 17.3117 14.0515C17.4645 13.8987 17.6718 13.8128 17.8879 13.8127H25.4008C29.1019 13.8127 31.5309 15.8178 31.5309 18.8958C31.5309 21.0564 29.8968 22.9906 27.8151 23.3293V23.4422C30.6492 23.753 32.5574 25.7156 32.5574 28.4265ZM24.6198 16.3963H20.3117V22.4818H23.9405C26.7454 22.4818 28.2924 21.3522 28.2924 19.3331C28.2924 17.4411 26.962 16.3963 24.6198 16.3963ZM20.3118 24.8965V31.6028H24.7787C27.699 31.6028 29.2464 30.431 29.2464 28.2285C29.2464 26.0257 27.656 24.8961 24.5909 24.8961H20.3118V24.8965Z" fill="#7E13F8"/>
</g>
<defs>
<clipPath id="clip0_55_252">
<rect width="48" height="48" fill="white"/>
</clipPath>
</defs>
</svg>
