<svg width="48" height="48" viewBox="0 0 48 48" fill="none" xmlns="http://www.w3.org/2000/svg">
<path d="M1.77783 1.77783V46.2223H46.2223V1.77783H1.77783ZM44.3704 44.3704H3.62968V11.0371H44.3704V44.3704ZM44.3704 9.18524H3.62968V3.62968H44.3704V9.18524Z" fill="black"/>
<path d="M42.5184 5.48145H40.6665V7.3333H42.5184V5.48145Z" fill="black"/>
<path d="M38.8147 5.48145H36.9629V7.3333H38.8147V5.48145Z" fill="black"/>
<path d="M35.1111 5.48145H33.2593V7.3333H35.1111V5.48145Z" fill="black"/>
<path d="M28.6299 5.48145H6.40771V7.3333H28.6299V5.48145Z" fill="black"/>
<path d="M29.5039 22.5405L21.9473 30.098L18.4958 26.6466L17.1865 27.9559L21.9473 32.7167L30.8132 23.8498L29.5039 22.5405Z" fill="black"/>
<path d="M24.0001 14.7407C16.8522 14.7407 11.0371 20.5558 11.0371 27.7037C11.0371 34.8516 16.8522 40.6666 24.0001 40.6666C31.148 40.6666 36.963 34.8516 36.963 27.7037C36.963 20.5558 31.148 14.7407 24.0001 14.7407ZM24.0001 38.8148C17.873 38.8148 12.889 33.8307 12.889 27.7037C12.889 21.5767 17.873 16.5926 24.0001 16.5926C30.1271 16.5926 35.1112 21.5767 35.1112 27.7037C35.1112 33.8307 30.1271 38.8148 24.0001 38.8148Z" fill="black"/>
</svg>
