<svg width="48" height="48" viewBox="0 0 48 48" fill="none" xmlns="http://www.w3.org/2000/svg">
<g clip-path="url(#clip0_175_217)">
<path d="M26.5595 41.9894L25.7467 43.963C25.5852 44.3537 25.216 44.6183 24.8005 44.6361C24.526 44.6466 24.2493 44.6543 23.9697 44.6543C14.4027 44.6492 5.93805 37.8831 3.84067 28.5601L0.583984 29.2975C1.76092 34.5269 4.71498 39.2732 8.90242 42.6653C13.1384 46.0958 18.4747 47.9897 23.9337 48.0001H23.9825C24.3031 48.0001 24.6211 47.9924 24.9389 47.9794C26.6519 47.9076 28.1827 46.8308 28.8367 45.235L29.8981 42.655L26.5595 41.9894Z" fill="url(#paint0_linear_175_217)"/>
<path d="M0.851252 30.3588C0.285422 28.287 -0.000864668 26.1489 1.96165e-06 24.0012C1.96165e-06 14.1591 6.16181 5.1599 15.3341 1.61108L16.5368 4.73333C8.6415 7.78865 3.33863 15.5315 3.33863 24.0012C3.33762 25.8492 3.58341 27.6891 4.0695 29.4721L0.851252 30.3588Z" fill="url(#paint1_linear_175_217)"/>
<path d="M42.3175 14.4934C38.748 7.61925 31.722 3.34837 23.9858 3.34837C21.2445 3.34837 18.5805 3.87769 16.0725 4.9185L14.7932 1.827C17.7087 0.616875 20.8011 0 23.9858 0C32.9734 0 41.1327 4.95956 45.279 12.9463L42.3175 14.4934Z" fill="url(#paint2_linear_175_217)"/>
<path d="M16.8238 19.0495C18.7599 19.0495 20.337 20.0851 21.1472 21.8916L21.2113 22.033L24.4625 20.9254L24.3934 20.7584C23.1343 17.6824 20.2342 15.7705 16.824 15.7705C14.4264 15.7705 12.4775 16.5415 10.8671 18.1244C9.26716 19.6971 8.45679 21.6756 8.45679 24.0064C8.45679 26.3166 9.26716 28.2852 10.8671 29.8578C12.4775 31.4408 14.4264 32.2116 16.824 32.2116C20.2342 32.2116 23.1343 30.2997 24.3934 27.2264L24.4627 27.0595L21.2062 25.9491L21.1445 26.0958C20.4189 27.8714 18.8034 28.9326 16.8238 28.9326C15.4751 28.9326 14.3366 28.4599 13.4338 27.5296C12.5212 26.5864 12.0596 25.4018 12.0596 24.0091C12.0596 22.606 12.5109 21.4444 13.434 20.4578C14.334 19.5222 15.4749 19.0495 16.8238 19.0495Z" fill="#09293F"/>
<path d="M37.189 16.0737L32.5555 27.8354L27.8911 16.0737H24.0754L30.6169 32.1269L25.9628 43.4491L29.2988 44.1147L40.7943 16.0737H37.189Z" fill="#09293F"/>
<path d="M45.279 12.9463C46.9671 16.2347 48 20.0972 48 24.0506C48 33.2756 42.8117 41.2849 35.2026 45.3024L33.5586 42.3872C40.1567 38.9462 44.6637 32.0263 44.6637 24.0506C44.6637 20.5894 43.8175 17.3585 42.3175 14.4932L45.279 12.9463Z" fill="url(#paint3_linear_175_217)"/>
</g>
<defs>
<linearGradient id="paint0_linear_175_217" x1="185.849" y1="884.464" x2="2477.41" y2="1496.33" gradientUnits="userSpaceOnUse">
<stop stop-color="#315C55"/>
<stop offset="1" stop-color="#09293F"/>
</linearGradient>
<linearGradient id="paint1_linear_175_217" x1="897.912" y1="785.331" x2="684.619" y2="2861.77" gradientUnits="userSpaceOnUse">
<stop stop-color="#4FB38D"/>
<stop offset="1" stop-color="#315C55"/>
</linearGradient>
<linearGradient id="paint2_linear_175_217" x1="438.82" y1="724.669" x2="2130.11" y2="1034.72" gradientUnits="userSpaceOnUse">
<stop stop-color="#4FB38D"/>
<stop offset="1" stop-color="#97DEC0"/>
</linearGradient>
<linearGradient id="paint3_linear_175_217" x1="811.374" y1="1012.49" x2="-110.893" y2="2739.21" gradientUnits="userSpaceOnUse">
<stop stop-color="#97DEC0"/>
<stop offset="1" stop-color="#FFFFF0" stop-opacity="0"/>
</linearGradient>
<clipPath id="clip0_175_217">
<rect width="48" height="48" fill="white"/>
</clipPath>
</defs>
</svg>
