<svg width="48" height="48" viewBox="0 0 48 48" fill="none" xmlns="http://www.w3.org/2000/svg">
<g clip-path="url(#clip0_246_153)">
<path d="M13.189 23.9998C13.189 26.867 14.328 29.6168 16.3554 31.6442C18.3828 33.6716 21.1326 34.8106 23.9998 34.8106V13.189C21.1326 13.189 18.3828 14.328 16.3554 16.3554C14.328 18.3828 13.189 21.1326 13.189 23.9998Z" fill="black"/>
<path d="M23.9999 0.216068C19.2959 0.216068 14.6975 1.61096 10.7863 4.22436C6.87507 6.83775 3.82665 10.5523 2.02651 14.8982C0.22637 19.2441 -0.244629 24.0262 0.673074 28.6398C1.59078 33.2534 3.85596 37.4913 7.18218 40.8175C10.5084 44.1437 14.7463 46.4089 19.3599 47.3266C23.9735 48.2443 28.7556 47.7733 33.1015 45.9732C37.4474 44.1731 41.162 41.1246 43.7753 37.2134C46.3887 33.3022 47.7836 28.7038 47.7836 23.9998C47.7979 20.8725 47.1925 17.7733 46.0024 14.8813C44.8122 11.9892 43.0608 9.36165 40.8494 7.15026C38.6381 4.93888 36.0105 3.18753 33.1184 1.99735C30.2264 0.80717 27.1272 0.201755 23.9999 0.216068ZM4.5404 23.9998C4.56879 18.8476 6.62809 13.9145 10.2713 10.2713C13.9145 6.62808 18.8476 4.56878 23.9999 4.54039V13.189C26.8671 13.189 29.6168 14.328 31.6443 16.3555C33.6717 18.3829 34.8107 21.1326 34.8107 23.9998C34.8107 26.8671 33.6717 29.6168 31.6443 31.6442C29.6168 33.6717 26.8671 34.8107 23.9999 34.8107V43.4593C18.8476 43.4309 13.9145 41.3716 10.2713 37.7284C6.62809 34.0852 4.56879 29.1521 4.5404 23.9998Z" fill="black"/>
</g>
<defs>
<clipPath id="clip0_246_153">
<rect width="48" height="48" fill="white"/>
</clipPath>
</defs>
</svg>
