<svg width="49" height="49" viewBox="0 0 49 49" fill="none" xmlns="http://www.w3.org/2000/svg">
<g clip-path="url(#clip0_242_97)">
<path d="M48.0013 37.4152C46.2913 37.8502 45.2338 37.434 44.285 36.009C42.155 32.8177 39.8038 29.7727 37.535 26.6715C37.2425 26.2702 36.9388 25.8765 36.56 25.3777C33.875 29.0002 31.1938 32.4502 28.6775 36.039C27.7775 37.3215 26.8325 37.8802 25.1525 37.4265L35.2475 23.8777L25.85 11.6415C27.4663 11.3265 28.5838 11.4877 29.5738 12.9352C31.76 16.1302 34.1713 19.1715 36.575 22.389C38.9938 19.1827 41.375 16.1377 43.625 12.9727C44.5288 11.6902 45.5 11.2027 47.1238 11.6752C45.8938 13.3065 44.69 14.9115 43.4788 16.5052C41.8438 18.654 40.2388 20.829 38.5438 22.9327C37.94 23.6827 38.0375 24.1702 38.5775 24.879C41.7125 29.0002 44.81 33.1627 48.0013 37.4152ZM0.998799 23.6527C1.2688 22.299 1.4488 20.919 1.8238 19.5915C4.0738 11.5552 13.2988 8.21399 19.6363 13.194C23.3488 16.1152 24.2713 20.2327 24.0875 24.8752H3.16255C2.84755 33.204 8.8438 38.2327 16.4863 35.6677C19.1675 34.7677 20.7463 32.6677 21.5375 30.0427C21.9388 28.7265 22.6025 28.5202 23.84 28.8952C23.2063 32.1802 21.77 34.9252 18.77 36.6427C14.27 39.2152 7.8463 38.3827 4.46755 34.809C2.47255 32.709 1.62505 30.0952 1.25005 27.2715C1.1938 26.8215 1.07755 26.379 0.987549 25.9327C0.995049 25.1727 0.998799 24.4127 0.998799 23.6527ZM3.20005 23.094H22.1113C21.9875 17.0715 18.2375 12.7927 13.1113 12.7552C7.4863 12.7102 3.4438 16.8877 3.20005 23.094Z" fill="black"/>
</g>
<defs>
<clipPath id="clip0_242_97">
<rect width="48" height="48" fill="white" transform="translate(0.5 0.5)"/>
</clipPath>
</defs>
</svg>
