<svg width="48" height="48" viewBox="0 0 48 48" fill="none" xmlns="http://www.w3.org/2000/svg">
<g clip-path="url(#clip0_179_380)">
<path d="M3.67188 46.872C3.33066 47.19 2.87934 47.363 2.41302 47.3548C1.9467 47.3466 1.50177 47.1577 1.17198 46.8279C0.842192 46.4981 0.653284 46.0532 0.645056 45.5869C0.636828 45.1205 0.809924 44.6692 1.12788 44.328L5.95188 39.5016C4.09428 36.9264 3.77268 34.0656 4.14468 31.6056C4.57188 28.7928 5.92788 26.3256 7.12788 25.1256L10.7279 21.5256C11.0654 21.1885 11.5229 20.9992 11.9999 20.9992C12.4769 20.9992 12.9344 21.1885 13.2719 21.5256L26.4719 34.7256C26.6391 34.8928 26.7718 35.0912 26.8624 35.3097C26.9529 35.5282 26.9995 35.7623 26.9995 35.9988C26.9995 36.2353 26.9529 36.4694 26.8624 36.6879C26.7718 36.9064 26.6391 37.1048 26.4719 37.272L22.8719 40.872C21.6719 42.072 19.2071 43.428 16.3943 43.8552C13.9343 44.2272 11.0735 43.9032 8.49828 42.0456L3.67188 46.872ZM21.6719 20.472C21.5071 20.6489 21.3084 20.7907 21.0876 20.8891C20.8668 20.9875 20.6284 21.0404 20.3867 21.0446C20.145 21.0489 19.905 21.0044 19.6808 20.9139C19.4567 20.8234 19.2531 20.6886 19.0822 20.5177C18.9113 20.3468 18.7765 20.1432 18.686 19.919C18.5955 19.6949 18.551 19.4548 18.5553 19.2131C18.5595 18.9715 18.6124 18.7331 18.7108 18.5123C18.8092 18.2915 18.951 18.0928 19.1279 17.928L22.6559 14.4L21.5279 13.272C21.1908 12.9345 21.0015 12.477 21.0015 12C21.0015 11.523 21.1908 11.0655 21.5279 10.728L25.1279 7.128C26.3279 5.928 28.7927 4.572 31.6055 4.1448C34.0655 3.7728 36.9263 4.0968 39.5015 5.9544L44.3255 1.128C44.4914 0.956007 44.69 0.818787 44.9096 0.724349C45.1291 0.62991 45.3653 0.580145 45.6043 0.577956C45.8433 0.575768 46.0803 0.621199 46.3016 0.7116C46.5228 0.802002 46.7239 0.935562 46.893 1.10449C47.0621 1.27342 47.1958 1.47432 47.2864 1.69549C47.377 1.91666 47.4227 2.15366 47.4207 2.39267C47.4188 2.63167 47.3692 2.86789 47.275 3.08754C47.1808 3.30719 47.0437 3.50588 46.8719 3.672L42.0479 8.5008C43.9055 11.0736 44.2319 13.9344 43.8575 16.3968C43.4303 19.2072 42.0743 21.672 40.8743 22.872L37.2743 26.472C36.9368 26.8091 36.4793 26.9984 36.0023 26.9984C35.5253 26.9984 35.0678 26.8091 34.7303 26.472L33.6023 25.344L30.0743 28.872C29.9095 29.0489 29.7108 29.1907 29.49 29.2891C29.2692 29.3875 29.0308 29.4404 28.7891 29.4446C28.5474 29.4489 28.3074 29.4044 28.0832 29.3139C27.8591 29.2234 27.6555 29.0886 27.4846 28.9177C27.3137 28.7468 27.1789 28.5432 27.0884 28.319C26.9979 28.0949 26.9534 27.8548 26.9577 27.6132C26.9619 27.3715 27.0148 27.1331 27.1132 26.9123C27.2116 26.6915 27.3534 26.4928 27.5303 26.328L31.0583 22.8L25.2023 16.944L21.6719 20.472Z" fill="black"/>
</g>
<defs>
<clipPath id="clip0_179_380">
<rect width="48" height="48" fill="white"/>
</clipPath>
</defs>
</svg>
