<svg width="48" height="48" viewBox="0 0 48 48" fill="none" xmlns="http://www.w3.org/2000/svg">
<g clip-path="url(#clip0_60_8)">
<path d="M6.55273 38.7285L12.4609 0.923252C12.4962 0.697318 12.6017 0.48821 12.7624 0.325464C12.923 0.162718 13.1308 0.0545592 13.3562 0.0162642C13.5817 -0.0220308 13.8135 0.0114737 14.0189 0.112045C14.2243 0.212617 14.3929 0.375173 14.5009 0.576752L20.6111 11.973L23.0464 7.33575C23.139 7.15985 23.2778 7.01259 23.448 6.90986C23.6182 6.80712 23.8132 6.75283 24.012 6.75283C24.2108 6.75283 24.4058 6.80712 24.576 6.90986C24.7461 7.01259 24.885 7.15985 24.9776 7.33575L41.4664 38.7285H6.55273Z" fill="#FFA000"/>
<path d="M26.9636 24.0019L20.6081 11.9674L6.55273 38.7285L26.9636 24.0019Z" fill="#F57C00"/>
<path d="M41.4664 38.7285L36.9412 10.7265C36.9078 10.5291 36.8207 10.3447 36.6895 10.1935C36.5582 10.0423 36.388 9.93013 36.1972 9.86924C36.0066 9.8085 35.8029 9.80135 35.6085 9.84857C35.414 9.89579 35.2363 9.99557 35.0947 10.137L6.55273 38.7281L22.3459 47.5849C22.8336 47.8571 23.3829 48 23.9415 48C24.5001 48 25.0494 47.8571 25.5371 47.5849L41.4664 38.7285Z" fill="#FFCA28"/>
<path d="M36.9413 10.7266C36.9079 10.5292 36.8208 10.3448 36.6896 10.1936C36.5583 10.0424 36.388 9.9302 36.1973 9.86931C36.0067 9.80852 35.803 9.80131 35.6086 9.84847C35.4142 9.89562 35.2364 9.99533 35.0948 10.1367L29.4297 15.8168L24.9751 7.33581C24.8825 7.15991 24.7436 7.01264 24.5734 6.90991C24.4032 6.80718 24.2082 6.75288 24.0094 6.75288C23.8107 6.75288 23.6157 6.80718 23.4455 6.90991C23.2753 7.01264 23.1364 7.15991 23.0438 7.33581L20.6086 11.9727L14.4983 0.576807C14.3902 0.37495 14.2213 0.212225 14.0155 0.111676C13.8098 0.0111273 13.5776 -0.0221497 13.3519 0.0165574C13.1264 0.0552539 12.9187 0.163879 12.7583 0.327069C12.5979 0.49026 12.4928 0.699757 12.4579 0.925932L6.55282 38.7286H6.53369L6.55244 38.7503L6.70807 38.8268L35.0866 10.4153C35.2281 10.2732 35.4061 10.1728 35.6009 10.1252C35.7958 10.0776 36 10.0846 36.1911 10.1455C36.3822 10.2063 36.5529 10.3187 36.6843 10.4703C36.8157 10.6218 36.9028 10.8066 36.9361 11.0044L41.4229 38.7556L41.4664 38.7282L36.9413 10.7266ZM6.60457 38.6768L12.4606 1.19331C12.4954 0.967011 12.6005 0.757392 12.761 0.594122C12.9215 0.430853 13.1293 0.322204 13.3549 0.283557C13.5807 0.244883 13.8129 0.278216 14.0186 0.378834C14.2244 0.479453 14.3932 0.642255 14.5013 0.844182L20.6108 12.2404L23.0464 7.60318C23.139 7.42728 23.2779 7.28002 23.4481 7.17729C23.6183 7.07455 23.8133 7.02026 24.0121 7.02026C24.2108 7.02026 24.4059 7.07455 24.576 7.17729C24.7462 7.28002 24.8851 7.42728 24.9777 7.60318L29.3419 15.9038L6.60382 38.6768H6.60457Z" fill="white" fill-opacity="0.2"/>
<path opacity="0.2" d="M25.5371 47.3175C25.0494 47.5898 24.5001 47.7327 23.9415 47.7327C23.3829 47.7327 22.8336 47.5898 22.3459 47.3175L6.59025 38.4863L6.552 38.7289L22.3451 47.5827C22.8329 47.8549 23.3822 47.9978 23.9408 47.9978C24.4993 47.9978 25.0486 47.8549 25.5364 47.5827L41.4664 38.7289L41.4251 38.4777L25.5364 47.3183L25.5371 47.3175Z" fill="#A52714"/>
</g>
<defs>
<clipPath id="clip0_60_8">
<rect width="48" height="48" fill="white"/>
</clipPath>
</defs>
</svg>
