<svg width="48" height="48" viewBox="0 0 48 48" fill="none" xmlns="http://www.w3.org/2000/svg">
<path d="M24.0001 0.198486C20.8745 0.198486 17.7794 0.814134 14.8916 2.01028C12.0039 3.20642 9.38002 4.95964 7.16983 7.16983C2.70615 11.6335 0.198486 17.6875 0.198486 24.0001C0.198486 34.5205 7.02956 43.4461 16.4788 46.6117C17.6689 46.8021 18.0497 46.0643 18.0497 45.4216V41.3991C11.4567 42.8272 10.0524 38.2097 10.0524 38.2097C8.95749 35.4487 7.41039 34.7109 7.41039 34.7109C5.24444 33.2352 7.577 33.2828 7.577 33.2828C9.95716 33.4494 11.2187 35.7344 11.2187 35.7344C13.2894 39.3522 16.7882 38.2811 18.1449 37.7099C18.3591 36.1628 18.978 35.1155 19.6444 34.5205C14.3605 33.9254 8.81468 31.8785 8.81468 22.8101C8.81468 20.1681 9.71915 18.0497 11.2663 16.3598C11.0282 15.7648 10.1952 13.2894 11.5043 10.0762C11.5043 10.0762 13.5036 9.43353 18.0497 12.5039C19.9301 11.9803 21.977 11.7185 24.0001 11.7185C26.0233 11.7185 28.0702 11.9803 29.9506 12.5039C34.4967 9.43353 36.496 10.0762 36.496 10.0762C37.8051 13.2894 36.972 15.7648 36.734 16.3598C38.2811 18.0497 39.1856 20.1681 39.1856 22.8101C39.1856 31.9023 33.616 33.9016 28.3082 34.4967C29.1651 35.2345 29.9506 36.6864 29.9506 38.9V45.4216C29.9506 46.0643 30.3314 46.8259 31.5453 46.6117C40.9945 43.4223 47.8018 34.5205 47.8018 24.0001C47.8018 20.8745 47.1861 17.7794 45.99 14.8916C44.7939 12.0039 43.0406 9.38002 40.8305 7.16983C38.6203 4.95964 35.9964 3.20642 33.1086 2.01028C30.2209 0.814134 27.1258 0.198486 24.0001 0.198486Z" fill="black"/>
</svg>
