<svg width="48" height="48" viewBox="0 0 48 48" fill="none" xmlns="http://www.w3.org/2000/svg">
<g clip-path="url(#clip0_168_8)">
<path d="M47.1977 18.9995L47.1343 18.8195L40.6012 1.12462C40.4731 0.779775 40.2375 0.48527 39.9292 0.284623C39.7387 0.158388 39.5247 0.0721019 39.3 0.0309881C39.0753 -0.0101258 38.8445 -0.00521204 38.6218 0.0454314C38.399 0.0960747 38.1888 0.191395 38.004 0.325622C37.8191 0.459849 37.6634 0.630191 37.5463 0.826338C37.4524 0.974685 37.3819 1.13657 37.3372 1.30634L32.928 13.7143H15.072L10.6629 1.30634C10.6066 1.08324 10.5063 0.87368 10.3677 0.690044C10.2291 0.506407 10.0551 0.352422 9.85592 0.237192C9.65679 0.121962 9.43657 0.0478264 9.20829 0.0191676C8.98001 -0.00949128 8.74831 0.00790811 8.52687 0.0703378C8.36524 0.118383 8.21159 0.190012 8.07087 0.282909C7.76226 0.483999 7.52662 0.779143 7.39887 1.12462L0.869152 18.8229L0.800581 18.9995C-0.144437 21.5408 -0.264138 24.3154 0.4585 26.9286C1.18114 29.5419 2.70932 31.8607 4.82572 33.5555L4.85144 33.5761L4.9063 33.6206L14.844 41.3538L19.7743 45.2229L22.7692 47.5749C23.1164 47.8502 23.5466 48.0001 23.9897 48.0001C24.4329 48.0001 24.863 47.8502 25.2103 47.5749L28.2052 45.2229L33.1354 41.3538L43.1434 33.5761L43.1709 33.5538C45.2875 31.8596 46.8161 29.5412 47.5394 26.9283C48.2626 24.3153 48.1437 21.5409 47.1994 18.9995H47.1977Z" fill="#E53935"/>
<path d="M47.1977 18.9996L47.1343 18.8196C43.9337 19.5045 40.9307 20.9079 38.352 22.9236L24.0085 34.1864L33.1405 41.3539L43.1503 33.5762L43.1777 33.5539C45.2928 31.8586 46.8198 29.5397 47.5415 26.9269C48.2632 24.314 48.1429 21.5401 47.1977 18.9996Z" fill="#EF6C00"/>
<path d="M14.844 41.3537L19.7743 45.2228L22.7691 47.5748C23.1164 47.8502 23.5465 48 23.9897 48C24.4329 48 24.863 47.8502 25.2103 47.5748L28.2051 45.2228L33.1354 41.3537L24 34.188L14.844 41.3537Z" fill="#F9A825"/>
<path d="M9.64815 22.9216C7.07034 20.909 4.06917 19.5081 0.87101 18.8245L0.802439 18.9993C-0.142767 21.5405 -0.262737 24.3149 0.459589 26.9281C1.18191 29.5414 2.70976 31.8604 4.82587 33.5553L4.85158 33.5759L4.90644 33.6205L14.8442 41.3536L23.983 34.1879L9.64815 22.9216Z" fill="#EF6C00"/>
</g>
<defs>
<clipPath id="clip0_168_8">
<rect width="48" height="48" fill="white"/>
</clipPath>
</defs>
</svg>
