<svg width="48" height="48" viewBox="0 0 48 48" fill="none" xmlns="http://www.w3.org/2000/svg">
<g clip-path="url(#clip0_181_4)">
<path d="M34.598 28.8616C34.7925 27.2572 34.9383 25.6529 34.9383 24C34.9383 22.3471 34.7925 20.7428 34.598 19.1385H42.814C43.2029 20.6942 43.446 22.3228 43.446 24C43.446 25.6772 43.2029 27.3059 42.814 28.8616M30.2955 42.3766C31.754 39.6785 32.8721 36.7616 33.65 33.7231H40.8208C38.4658 37.7783 34.7295 40.8501 30.2955 42.3766ZM29.6878 28.8616H18.3118C18.0688 27.2572 17.9229 25.6529 17.9229 24C17.9229 22.3471 18.0688 20.7185 18.3118 19.1385H29.6878C29.9066 20.7185 30.0768 22.3471 30.0768 24C30.0768 25.6529 29.9066 27.2572 29.6878 28.8616ZM23.9998 43.3489C21.9823 40.432 20.3537 37.1991 19.3571 33.7231H28.6426C27.646 37.1991 26.0174 40.432 23.9998 43.3489ZM14.2768 14.2769H7.17891C9.50914 10.2103 13.2428 7.13349 17.6798 5.6234C16.2214 8.32155 15.1275 11.2385 14.2768 14.2769ZM7.17891 33.7231H14.2768C15.1275 36.7616 16.2214 39.6785 17.6798 42.3766C13.2516 40.8508 9.52287 37.7781 7.17891 33.7231ZM5.18568 28.8616C4.79676 27.3059 4.55368 25.6772 4.55368 24C4.55368 22.3228 4.79676 20.6942 5.18568 19.1385H13.4017C13.2072 20.7428 13.0614 22.3471 13.0614 24C13.0614 25.6529 13.2072 27.2572 13.4017 28.8616M23.9998 4.62678C26.0174 7.54371 27.646 10.8009 28.6426 14.2769H19.3571C20.3537 10.8009 21.9823 7.54371 23.9998 4.62678ZM40.8208 14.2769H33.65C32.888 11.2667 31.7616 8.3607 30.2955 5.6234C34.7681 7.15478 38.4872 10.2419 40.8208 14.2769ZM23.9998 -0.307678C10.5577 -0.307678 -0.307861 10.6308 -0.307861 24C-0.307861 30.4468 2.25312 36.6296 6.8117 41.1882C9.06888 43.4453 11.7485 45.2358 14.6977 46.4574C17.6468 47.679 20.8077 48.3077 23.9998 48.3077C30.4466 48.3077 36.6294 45.7467 41.188 41.1882C45.7465 36.6296 48.3075 30.4468 48.3075 24C48.3075 20.8079 47.6788 17.647 46.4572 14.6979C45.2356 11.7487 43.4451 9.06906 41.188 6.81188C38.9308 4.5547 36.2511 2.76421 33.302 1.54263C30.3528 0.321059 27.192 -0.307678 23.9998 -0.307678Z" fill="black"/>
</g>
<defs>
<clipPath id="clip0_181_4">
<rect width="48" height="48" fill="white"/>
</clipPath>
</defs>
</svg>
