<svg width="48" height="48" viewBox="0 0 48 48" fill="none" xmlns="http://www.w3.org/2000/svg">
<g clip-path="url(#clip0_179_373)">
<path d="M47.4001 24C47.4001 30.206 44.9347 36.1579 40.5464 40.5463C36.158 44.9346 30.2062 47.4 24.0001 47.4C17.794 47.4 11.8422 44.9346 7.4538 40.5463C3.06545 36.1579 0.600098 30.206 0.600098 24C0.600098 17.7939 3.06545 11.842 7.4538 7.45368C11.8422 3.06533 17.794 0.599976 24.0001 0.599976C30.2062 0.599976 36.158 3.06533 40.5464 7.45368C44.9347 11.842 47.4001 17.7939 47.4001 24Z" stroke="#8AADF4" stroke-linecap="round" stroke-linejoin="round"/>
<path d="M4.2002 33H43.8002M4.2002 15H43.8002M24.0002 0.599976C30.0122 7.79998 33.0002 15.612 33.0002 24C33.0002 32.388 30.0122 40.2 24.0002 47.4C17.9882 40.2 15.0002 32.388 15.0002 24C15.0867 15.3711 18.2821 7.06286 24.0002 0.599976Z" stroke="#8AADF4" stroke-linecap="round" stroke-linejoin="round"/>
</g>
<defs>
<clipPath id="clip0_179_373">
<rect width="48" height="48" fill="white"/>
</clipPath>
</defs>
</svg>
