<svg width="48" height="48" viewBox="0 0 48 48" fill="none" xmlns="http://www.w3.org/2000/svg">
<path d="M2.66675 3.55554H45.3334V46.2222H2.66675V3.55554Z" fill="#FF0066"/>
<path d="M17.1852 17.2856C18.5347 17.266 19.6147 16.1595 19.6017 14.8098C19.5885 13.46 18.4874 12.3746 17.1375 12.3811C15.7877 12.3876 14.697 13.4835 14.6969 14.8333C14.698 15.1581 14.7633 15.4794 14.8892 15.7788C15.0151 16.0782 15.199 16.3497 15.4303 16.5777C15.6616 16.8057 15.9358 16.9856 16.237 17.1072C16.5382 17.2287 16.8604 17.2892 17.1852 17.2856ZM12.0259 30.4151C11.8846 31.019 11.8109 31.6367 11.8059 32.2568C11.8059 34.4156 12.9765 35.8491 15.4649 35.8491C17.5282 35.8491 19.2024 34.6238 20.4057 32.6441L19.67 35.5966H23.766L26.1094 26.21C26.6947 23.8308 27.8279 22.597 29.5482 22.597C30.9015 22.597 31.743 23.4383 31.743 24.8293C31.7497 25.2751 31.688 25.7195 31.5604 26.1468L30.3537 30.463C30.1811 31.0574 30.0949 31.6735 30.0979 32.2925C30.0979 34.3405 31.3045 35.8425 33.8285 35.8425C35.9875 35.8425 37.7079 34.4531 38.6585 31.1235L37.049 30.5005C36.2435 32.7328 35.549 33.1355 35.001 33.1355C34.4532 33.1355 34.1579 32.7705 34.1579 32.0381C34.1737 31.6539 34.235 31.2729 34.3405 30.9031L35.513 26.6965C35.7763 25.8316 35.912 24.9329 35.9159 24.0288C35.9159 20.8816 34.0129 19.24 31.7072 19.24C29.5482 19.24 27.3535 21.1871 26.256 23.237L27.0599 19.5573H20.8049L19.926 22.8H22.8547L21.0525 30.009C19.6359 33.1561 17.035 33.2073 16.709 33.134C16.173 33.0126 15.8317 32.8096 15.8317 32.1098C15.8474 31.5433 15.9334 30.981 16.0877 30.4356L18.832 19.5488H11.8825L11.0054 22.7915H13.8947L12.0259 30.4151Z" fill="white"/>
</svg>
