<svg width="48" height="48" viewBox="0 0 48 48" fill="none" xmlns="http://www.w3.org/2000/svg">
<path d="M3 3H45V45H3V3Z" fill="#F5DE19"/>
<path d="M31.2136 35.8125C31.572 36.539 32.1281 37.1496 32.818 37.5741C33.5079 37.9986 34.3036 38.2199 35.1136 38.2125C36.7486 38.2125 37.7941 37.395 37.7941 36.2625C37.7941 34.9125 36.7201 34.4295 34.9201 33.642L33.9331 33.219C31.0831 32.0055 29.1931 30.486 29.1931 27.273C29.1931 24.3135 31.4431 22.059 34.9726 22.059C36.1151 21.9767 37.2566 22.2325 38.2548 22.7945C39.2529 23.3566 40.0635 24.1999 40.5856 25.2195L37.5001 27.192C37.299 26.6865 36.949 26.2541 36.4966 25.9519C36.0441 25.6498 35.5106 25.4922 34.9666 25.5C34.7292 25.4763 34.4895 25.5022 34.2628 25.5762C34.036 25.6502 33.8271 25.7706 33.6494 25.9298C33.4718 26.089 33.3292 26.2834 33.2308 26.5008C33.1325 26.7181 33.0805 26.9535 33.0781 27.192C33.0781 28.3755 33.8116 28.8555 35.5051 29.592L36.4921 30.015C39.8461 31.4535 41.7421 32.919 41.7421 36.2145C41.7421 39.768 38.9506 41.715 35.2021 41.715C33.7417 41.8071 32.2858 41.4751 31.0097 40.759C29.7337 40.0428 28.6918 38.9731 28.0096 37.6785L31.2136 35.8125ZM17.2711 36.1545C17.8906 37.254 18.4546 38.184 19.8106 38.184C21.1066 38.184 21.9256 37.677 21.9256 35.7045V22.284H25.8721V35.757C25.8721 39.843 23.4721 41.703 19.9786 41.703C18.7437 41.7705 17.5173 41.4628 16.4606 40.8202C15.4039 40.1777 14.5664 39.2305 14.0581 38.103L17.2711 36.1545Z" fill="black"/>
</svg>
