<svg width="48" height="48" viewBox="0 0 48 48" fill="none" xmlns="http://www.w3.org/2000/svg">
<g clip-path="url(#clip0_45_50)">
<path d="M44.5263 23.8261C44.5263 22.5913 44.0357 21.4071 43.1626 20.5339C42.2894 19.6608 41.1052 19.1702 39.8704 19.1702C39.7036 19.1702 39.5405 19.1786 39.3809 19.1952L45.7769 0.334106H18.5991L24.9844 19.1792C24.8915 19.1792 24.7968 19.1702 24.7022 19.1702C23.5917 19.1713 22.5182 19.569 21.6751 20.2917C20.8321 21.0144 20.275 22.0146 20.1042 23.1118C19.9335 24.209 20.1604 25.3311 20.744 26.2758C21.3276 27.2205 22.2295 27.9256 23.2872 28.264C22.2964 29.969 21.0633 31.5211 19.6264 32.8717C17.7573 34.6614 15.535 36.0409 13.1018 36.9219C11.7389 36.2755 10.673 35.1348 10.1206 33.7312C9.56811 32.3277 9.57043 30.7665 10.1271 29.3646C10.2652 29.043 10.4022 28.719 10.538 28.3927C11.5766 28.1483 12.4999 27.5548 13.1535 26.7114C13.8071 25.8681 14.1515 24.826 14.1291 23.7592C14.1067 22.6925 13.7188 21.6657 13.0303 20.8506C12.3419 20.0354 11.3945 19.4813 10.3465 19.2807C9.29855 19.0801 8.21349 19.2453 7.27268 19.7486C6.33187 20.252 5.5923 21.0629 5.17758 22.046C4.76285 23.0291 4.69809 24.1247 4.99411 25.1498C5.29014 26.1749 5.92902 27.0674 6.80399 27.678C5.31527 30.3722 4.18092 33.2474 3.4291 36.2323C2.79664 40.0467 3.4291 44.0933 6.72538 46.3819C14.4078 51.7078 22.7494 43.0803 31.543 40.9132C34.7303 40.1271 38.2285 40.2539 41.0352 38.6263C42.0501 38.0498 42.9251 37.2564 43.5981 36.3027C44.271 35.3491 44.7252 34.2587 44.9282 33.1093C45.1147 32.0148 45.0793 30.8939 44.8243 29.8133C44.5692 28.7327 44.0997 27.7144 43.4436 26.8187C44.144 25.9816 44.5273 24.9247 44.5263 23.8333V23.8261ZM29.3598 23.8511V23.8351C29.3611 23.0338 29.1552 22.2459 28.762 21.5478C28.3688 20.8496 27.8017 20.2651 27.1158 19.8509L32.1969 9.55833L37.2887 19.9456C36.65 20.3701 36.1262 20.9461 35.7643 21.6223C35.4023 22.2985 35.2135 23.0538 35.2145 23.8208V23.9226L29.3598 23.8511Z" fill="#99425B"/>
<path d="M45.6642 23.8261C45.6613 22.4764 45.1884 21.1698 44.3266 20.131C43.4649 19.0922 42.2682 18.3861 40.9422 18.134L47.3632 -0.803955H17.0125L23.4442 18.1715C22.3209 18.4217 21.2975 19.0009 20.5047 19.8351C19.7118 20.6694 19.1855 21.7209 18.9929 22.8556C18.8002 23.9903 18.9499 25.1566 19.423 26.2058C19.896 27.255 20.6709 28.1395 21.6487 28.7464C20.8391 29.9455 19.8997 31.0516 18.8473 32.0445C17.2168 33.6061 15.2998 34.8376 13.2016 35.6713C12.218 35.0987 11.4724 34.1922 11.1006 33.1164C10.7288 32.0407 10.7554 30.8672 11.1756 29.8094L11.2471 29.6433L11.3793 29.3306C12.5695 28.9177 13.5928 28.1283 14.2942 27.0818C14.9956 26.0353 15.3369 24.7888 15.2664 23.5309C15.196 22.2731 14.7176 21.0725 13.9037 20.1109C13.0899 19.1493 11.9849 18.479 10.756 18.2016C9.52714 17.9242 8.24134 18.0547 7.0933 18.5734C5.94526 19.0922 4.9975 19.9708 4.39352 21.0764C3.78954 22.182 3.56224 23.4542 3.74602 24.7006C3.92981 25.9469 4.51468 27.0994 5.41207 27.9835C5.21793 28.3956 5.01604 28.8161 4.80641 29.2449C3.64804 31.3747 2.80548 33.6617 2.30517 36.034C1.4744 41.0364 2.81435 45.0438 6.07669 47.3038C7.83041 48.5581 9.93431 49.2288 12.0904 49.2209C15.8994 49.2209 19.7531 47.3074 23.5246 45.4351C26.1594 44.0017 28.9396 42.8535 31.818 42.0101C32.8796 41.7658 33.953 41.5756 35.0339 41.4402C37.3225 41.256 39.5542 40.6325 41.6068 39.6036C42.7644 38.9423 43.7625 38.0346 44.5304 36.9448C45.2982 35.8549 45.817 34.6095 46.0501 33.2969C46.4294 31.067 45.9917 28.7751 44.8173 26.8419C45.3755 25.9353 45.6676 24.8908 45.6642 23.8261ZM43.3898 23.8261C43.3898 24.5222 43.1834 25.2027 42.7967 25.7815C42.4099 26.3603 41.8602 26.8114 41.2171 27.0778C40.574 27.3442 39.8663 27.4139 39.1836 27.2781C38.5009 27.1423 37.8737 26.8071 37.3815 26.3149C36.8893 25.8226 36.5541 25.1955 36.4183 24.5128C36.2825 23.83 36.3522 23.1223 36.6185 22.4792C36.8849 21.8361 37.3361 21.2864 37.9148 20.8997C38.4936 20.5129 39.1741 20.3065 39.8702 20.3065C40.8033 20.3079 41.6977 20.6792 42.3574 21.3389C43.0171 21.9987 43.3884 22.8931 43.3898 23.8261ZM44.1884 1.47039L38.5178 18.193C38.2746 18.2507 38.0359 18.3253 37.8031 18.4163L32.2021 6.98205L26.5833 18.3484C26.339 18.2625 26.0888 18.1944 25.8347 18.1447L20.1837 1.47039H44.1884ZM24.702 20.3065C25.3981 20.3065 26.0786 20.5129 26.6574 20.8997C27.2362 21.2864 27.6873 21.8361 27.9537 22.4792C28.2201 23.1223 28.2898 23.83 28.154 24.5128C28.0182 25.1955 27.683 25.8226 27.1907 26.3149C26.6985 26.8071 26.0714 27.1423 25.3886 27.2781C24.7059 27.4139 23.9982 27.3442 23.3551 27.0778C22.712 26.8114 22.1623 26.3603 21.7756 25.7815C21.3888 25.2027 21.1824 24.5222 21.1824 23.8261C21.1824 22.8927 21.5532 21.9974 22.2133 21.3374C22.8733 20.6773 23.7685 20.3065 24.702 20.3065ZM9.4748 20.3405C10.1709 20.3405 10.8514 20.5469 11.4302 20.9336C12.009 21.3204 12.4601 21.87 12.7265 22.5132C12.9929 23.1563 13.0626 23.864 12.9268 24.5467C12.791 25.2294 12.4558 25.8566 11.9635 26.3488C11.4713 26.841 10.8442 27.1762 10.1614 27.312C9.4787 27.4478 8.77103 27.3781 8.12791 27.1117C7.48478 26.8454 6.9351 26.3942 6.54836 25.8154C6.16162 25.2367 5.9552 24.5562 5.9552 23.8601C5.9552 22.9269 6.32577 22.032 6.98543 21.372C7.6451 20.712 8.54165 20.3409 9.4748 20.3405ZM43.8079 32.9074C43.6313 33.8922 43.2403 34.8262 42.6627 35.6431C42.085 36.46 41.3348 37.14 40.4652 37.6348C38.661 38.5114 36.7072 39.0388 34.707 39.1891C33.5778 39.3517 32.4112 39.5196 31.2695 39.8019C28.2305 40.6821 25.2954 41.8879 22.5152 43.3983C16.8624 46.2051 11.9743 48.6295 7.37912 45.4404C4.0078 43.1035 4.16324 38.78 4.55629 36.4109C5.01875 34.2542 5.79082 32.1757 6.8485 30.24L7.33088 29.2413C7.81134 29.4314 8.31471 29.5576 8.82805 29.6165C8.37149 31.2226 8.49769 32.9384 9.1843 34.4604C9.87092 35.9824 11.0737 37.2125 12.5799 37.9331L13.0176 38.1582L13.4804 37.9921C16.0627 37.062 18.4217 35.6014 20.4052 33.7042C21.7169 32.4719 22.8682 31.0793 23.8319 29.5593C25.0667 29.7471 26.3291 29.5307 27.4307 28.9422C28.5324 28.3538 29.4143 27.4249 29.9447 26.2942C30.4752 25.1635 30.6259 23.8916 30.3743 22.6682C30.1227 21.4449 29.4822 20.3357 28.5485 19.5061L32.1896 12.1435L35.8682 19.6473C34.8216 20.656 34.1928 22.0215 34.1067 23.4726C34.0206 24.9236 34.4837 26.3539 35.4037 27.4793C36.3238 28.6046 37.6336 29.3426 39.0728 29.5466C40.512 29.7506 41.9753 29.4056 43.1719 28.5803C43.8358 29.9186 44.0579 31.433 43.8061 32.9056L43.8079 32.9074Z" fill="white"/>
</g>
<defs>
<clipPath id="clip0_45_50">
<rect width="48" height="48" fill="white"/>
</clipPath>
</defs>
</svg>
