<svg width="48" height="48" viewBox="0 0 48 48" fill="none" xmlns="http://www.w3.org/2000/svg">
<g clip-path="url(#clip0_60_14)">
<path d="M30.1726 30.9768H26.8812L26.606 30.702V22.9972C26.606 21.6262 26.0675 20.5638 24.4145 20.5267C23.5636 20.5042 22.5905 20.5267 21.5502 20.568L21.3942 20.7273V30.6982L21.1194 30.9731H17.8276L17.5527 30.6982V17.5365L17.8276 17.2616H25.235C28.1139 17.2616 30.4471 19.5941 30.4471 22.4733V30.702L30.1726 30.9768Z" fill="#014847"/>
<path d="M22.1033 44.9633V35.0895L22.3781 34.8143H25.677L25.9519 35.0891V44.9633L25.677 45.2381H22.3785L22.1033 44.9633ZM22.1033 13.149V3.27525L22.3781 3H25.677L25.9519 3.27487V13.149L25.677 13.4239H22.3785L22.1033 13.149ZM47.7289 26.0434H34.5634L34.2885 25.7685V22.47L34.5634 22.1951H47.7289L48.0037 22.47V25.7689L47.7289 26.0434ZM13.4404 26.0434H0.274875L0 25.7685V22.47L0.274875 22.1951H13.4404L13.7153 22.47V25.7689L13.4404 26.0434ZM10.2566 12.681V12.2276L12.5194 9.96525H12.9724L16.431 13.4239V15.8201L16.1115 16.1396H13.7153L10.2566 12.681ZM12.9724 38.2691H12.5194L10.257 36.0068V35.5534L13.7156 32.0951H16.1119L16.431 32.4143V34.8105L12.9724 38.2691Z" fill="#05BDBA"/>
</g>
<defs>
<clipPath id="clip0_60_14">
<rect width="48" height="48" fill="white"/>
</clipPath>
</defs>
</svg>
