<svg width="48" height="48" viewBox="0 0 48 48" fill="none" xmlns="http://www.w3.org/2000/svg">
<path d="M47.351 32.1818L36.011 12.5454C35.7266 12.0462 35.3145 11.6315 34.8171 11.344C34.3196 11.0564 33.7546 10.9063 33.1801 10.9091C32.6048 10.9029 32.0385 11.0515 31.5404 11.3394C31.0424 11.6273 30.6309 12.0439 30.3492 12.5454L26.6346 18.9764L20.2855 7.99636C19.9992 7.49875 19.5867 7.08541 19.0897 6.798C18.5927 6.51058 18.0287 6.35925 17.4546 6.35925C16.8805 6.35925 16.3165 6.51058 15.8195 6.798C15.3225 7.08541 14.9101 7.49875 14.6237 7.99636L0.649157 32.1818C0.362057 32.6791 0.210841 33.2431 0.210693 33.8173C0.210546 34.3915 0.361472 34.9557 0.648317 35.4531C0.935161 35.9505 1.34783 36.3637 1.84488 36.6512C2.34193 36.9387 2.90587 37.0903 3.48007 37.0909H18.0682C19.7921 37.091 21.4856 36.6372 22.9784 35.7752C24.4712 34.9131 25.7108 33.6732 26.5724 32.1802L33.1801 20.7273L38.8419 30.5454H35.0619L31.2819 37.0909H44.5201C45.0943 37.0903 45.6582 36.9387 46.1552 36.6512C46.6523 36.3637 47.065 35.9505 47.3518 35.4531C47.6387 34.9557 47.7896 34.3915 47.7894 33.8173C47.7893 33.2431 47.6381 32.6791 47.351 32.1818ZM18.0666 30.5454H9.15825L17.4546 16.1782L22.8546 25.5218L20.9024 28.9074C20.6153 29.4055 20.202 29.8191 19.7041 30.1067C19.2063 30.3942 18.6415 30.5456 18.0666 30.5454Z" fill="#00E676"/>
</svg>
