<svg width="48" height="48" viewBox="0 0 48 48" fill="none" xmlns="http://www.w3.org/2000/svg">
<path d="M9.69246 2.40002H38.3076C42.6463 2.40002 46.1539 5.9076 46.1539 10.2463V37.7538C46.1539 42.0925 42.6463 45.6 38.3076 45.6H9.69246C5.35377 45.6 1.84619 42.0925 1.84619 37.7538V10.2463C1.84619 5.9076 5.35377 2.40002 9.69246 2.40002Z" fill="#001E36"/>
<path d="M17.7232 13.3845C17.1694 13.3845 16.6155 13.3845 16.0434 13.4032C15.4708 13.4216 14.9353 13.4216 14.4369 13.4403C13.9384 13.4586 13.477 13.4586 13.0339 13.4769C12.6092 13.4953 12.3139 13.4953 11.9999 13.4953C11.8708 13.4953 11.8154 13.569 11.8154 13.6985V32.6954C11.8154 32.8616 11.8892 32.9356 12.037 32.9356H15.6186C15.7477 32.9169 15.8402 32.8062 15.8215 32.6771V26.7509C16.1721 26.7509 16.4307 26.7509 16.6155 26.7693C16.8 26.7876 17.0953 26.7876 17.5384 26.7876C19.0525 26.7876 20.4371 26.6214 21.6922 26.16C22.8924 25.7169 23.9263 24.9416 24.6647 23.9076C25.4031 22.8738 25.7724 21.563 25.7724 19.9753C25.7724 19.1445 25.6249 18.3508 25.348 17.5754C25.0545 16.7854 24.5949 16.0677 24 15.4708C23.298 14.7887 22.4529 14.2715 21.5261 13.9567C20.4921 13.569 19.237 13.3845 17.7232 13.3845ZM18.1352 17.0209C18.7929 17.0333 19.4332 17.1483 20.0307 17.3906C20.5662 17.5938 21.0093 17.9631 21.3232 18.4429C21.6177 18.9394 21.765 19.5094 21.748 20.0864C21.748 20.8985 21.5631 21.5264 21.1754 21.9878C20.769 22.4493 20.2522 22.8003 19.6617 22.9664C18.9784 23.1879 18.2584 23.2984 17.5384 23.2984H16.5598C16.3383 23.2984 16.0987 23.28 15.8402 23.2617V17.0586C15.9693 17.0399 16.2279 17.0216 16.5972 17.0403C16.9479 17.0216 17.3722 17.0216 17.8524 17.0216C17.947 17.0193 18.0412 17.019 18.1352 17.0209ZM33.6186 17.9634C32.3077 17.9634 31.2184 18.1663 30.3509 18.6094C29.5572 18.9787 28.8739 19.5693 28.4125 20.3076C28.0064 20.9909 27.7845 21.7476 27.7845 22.5417C27.7688 23.1948 27.9147 23.8417 28.2093 24.4248C28.5545 25.0456 29.034 25.5817 29.6126 25.9939C30.4247 26.5493 31.306 26.9962 32.234 27.3231C33.1385 27.6738 33.7477 27.9507 34.0434 28.1906C34.3386 28.4308 34.4864 28.6707 34.4864 28.9293C34.4864 29.2616 34.2832 29.5755 33.988 29.7046C33.6557 29.8708 33.1572 29.9632 32.4555 29.9632C31.7172 29.9632 30.9785 29.8708 30.2769 29.6863C29.4712 29.5064 28.6988 29.2011 27.9877 28.7818C27.9324 28.7448 27.877 28.7264 27.8216 28.7634C27.7662 28.8001 27.7479 28.8739 27.7479 28.9293V32.1416C27.7295 32.2894 27.8216 32.4185 27.951 32.4922C28.5497 32.7719 29.183 32.9706 29.8341 33.0831C30.6649 33.2493 31.4953 33.323 32.3444 33.323C33.6737 33.323 34.7817 33.1201 35.6862 32.7324C36.517 32.4001 37.237 31.8279 37.7538 31.0893C38.2378 30.3631 38.489 29.5066 38.4738 28.634C38.492 27.9748 38.3462 27.3214 38.0494 26.7326C37.6984 26.1046 37.1999 25.5878 36.5907 25.2001C35.6994 24.6404 34.7452 24.188 33.7477 23.8522C33.3023 23.6679 32.865 23.4646 32.4369 23.243C32.197 23.1139 31.9754 22.9477 31.8093 22.7445C31.6985 22.5967 31.6248 22.4309 31.6248 22.2648C31.6248 22.0986 31.6802 21.9141 31.7722 21.7663C31.9017 21.5818 32.1045 21.4523 32.3444 21.3969C32.6954 21.3049 33.0831 21.2491 33.4521 21.2675C34.1538 21.2675 34.8367 21.3599 35.52 21.5077C36.148 21.6368 36.7385 21.84 37.2924 22.1356C37.3661 22.1723 37.4585 22.1723 37.6247 22.1356C37.6535 22.1143 37.6769 22.0864 37.693 22.0543C37.709 22.0221 37.7173 21.9867 37.7171 21.9508V18.9417C37.7171 18.8676 37.6984 18.7939 37.68 18.7201C37.643 18.6464 37.5693 18.5723 37.4955 18.554C36.9864 18.3459 36.4528 18.2032 35.9077 18.1293C35.1497 18.0189 34.3847 17.9637 33.6186 17.9634Z" fill="#31A8FF"/>
</svg>
