<svg width="48" height="48" viewBox="0 0 48 48" fill="none" xmlns="http://www.w3.org/2000/svg">
<g clip-path="url(#clip0_242_123)">
<path d="M23.6855 23.3139C26.9209 20.2202 25.9336 16.394 23.0034 11.7574C20.073 7.12093 14.1743 5.47142 13.0739 6.5236C11.9734 7.57578 11.7297 15.0987 14.6599 19.7354C17.5903 24.3719 20.4499 26.4077 23.6855 23.3139Z" fill="url(#paint0_linear_242_123)"/>
<path d="M26.4831 23.742C28.8767 27.5295 32.0767 26.1446 36.0377 22.3573C39.9985 18.5699 41.641 11.315 40.8269 10.0269C40.0128 8.73876 33.826 8.80323 29.8652 12.5907C25.9043 16.3781 24.0895 19.9547 26.4831 23.742Z" fill="url(#paint1_linear_242_123)"/>
<path d="M25.1742 21.6584C29.1488 22.1482 30.7118 18.4632 31.4405 12.5066C32.1693 6.55008 29.1651 0.254225 27.8133 0.0876518C26.4615 -0.0789219 21.9201 5.28697 21.1913 11.2437C20.4626 17.2002 21.1997 21.1686 25.1742 21.6584Z" fill="url(#paint2_linear_242_123)"/>
<path d="M24.1733 47.9999C32.5063 47.9999 39.2643 45.5705 39.2643 34.5533C39.2643 23.5362 32.5063 14.4954 24.1733 14.4954C15.8402 14.4954 9.08765 23.536 9.08765 34.5533C9.08765 45.5707 15.8402 47.9999 24.1733 47.9999Z" fill="url(#paint3_linear_242_123)"/>
<path d="M31.7953 32.3042C32.9858 32.3042 33.9508 31.8538 33.9508 31.2981C33.9508 30.7424 32.9858 30.292 31.7953 30.292C30.6049 30.292 29.6399 30.7424 29.6399 31.2981C29.6399 31.8538 30.6049 32.3042 31.7953 32.3042Z" fill="#EAADCC"/>
<path d="M15.8328 31.693C17.0143 31.8386 18.0269 31.5095 18.0943 30.958C18.1618 30.4065 17.2587 29.8414 16.0771 29.6958C14.8956 29.5502 13.883 29.8792 13.8156 30.4307C13.7481 30.9823 14.6512 31.5474 15.8328 31.693Z" fill="#EAADCC"/>
<path d="M21.666 30.3584C21.6443 30.3245 21.6162 30.2954 21.5832 30.2727C21.5501 30.2499 21.5129 30.2341 21.4737 30.2259C21.4345 30.2178 21.394 30.2177 21.3547 30.2254C21.3154 30.2332 21.2781 30.2488 21.2449 30.2713C21.2117 30.2937 21.1832 30.3226 21.1613 30.3562C21.1394 30.3899 21.1243 30.4275 21.1171 30.4671C21.1099 30.5066 21.1106 30.5472 21.1192 30.5865C21.1278 30.6257 21.1441 30.6628 21.1672 30.6957C21.6287 31.383 22.3384 31.7819 23.2722 31.8891C24.202 31.9956 25.0321 31.7565 25.744 31.1759C25.7758 31.1513 25.8024 31.1205 25.8221 31.0855C25.8419 31.0504 25.8544 31.0117 25.8591 30.9717C25.8637 30.9317 25.8603 30.8911 25.8491 30.8525C25.8378 30.8138 25.819 30.7778 25.7937 30.7465C25.7684 30.7152 25.7371 30.6894 25.7016 30.6704C25.6662 30.6515 25.6274 30.6399 25.5874 30.6362C25.5474 30.6326 25.5071 30.637 25.4689 30.6492C25.4306 30.6615 25.3952 30.6813 25.3647 30.7074C24.779 31.185 24.1106 31.3776 23.3406 31.2892C22.5746 31.2013 22.0245 30.8924 21.666 30.3584ZM17.2066 25.7055C17.4895 25.6952 17.7717 25.7412 18.0369 25.8407C18.3021 25.9402 18.5451 26.0913 18.7519 26.2854C18.9592 26.4789 19.1264 26.7116 19.2439 26.9701C19.3613 27.2287 19.4266 27.508 19.4361 27.792C19.4464 28.0759 19.4006 28.3591 19.3015 28.6252C19.2023 28.8913 19.0517 29.1352 18.8584 29.3427C18.6656 29.5508 18.4337 29.7186 18.176 29.8364C17.9184 29.9543 17.6401 30.0198 17.3571 30.0294C17.0742 30.0397 16.792 29.9938 16.5268 29.8943C16.2616 29.7947 16.0186 29.6436 15.8118 29.4495C15.6046 29.256 15.4374 29.0233 15.32 28.7647C15.2027 28.5062 15.1374 28.2269 15.1279 27.9429C15.1176 27.659 15.1634 27.3759 15.2625 27.1097C15.3616 26.8436 15.5122 26.5998 15.7055 26.3922C15.8983 26.1842 16.1302 26.0164 16.3878 25.8985C16.6454 25.7807 16.9236 25.7151 17.2066 25.7055Z" fill="black"/>
<path d="M17.3196 27.5138C17.3168 27.4211 17.2958 27.3298 17.2577 27.2453C17.2197 27.1607 17.1654 27.0845 17.0979 27.0211C17.0304 26.9577 16.9511 26.9083 16.8646 26.8757C16.778 26.8431 16.6859 26.828 16.5935 26.8312C16.5011 26.8345 16.4103 26.856 16.3262 26.8946C16.2421 26.9332 16.1665 26.9881 16.1036 27.0561C16.0407 27.1241 15.9918 27.2039 15.9598 27.291C15.9277 27.378 15.9131 27.4705 15.9168 27.5632C15.9233 27.7499 16.0035 27.9264 16.1397 28.0538C16.2758 28.1812 16.4569 28.2491 16.6429 28.2425C16.8289 28.236 17.0048 28.1555 17.1317 28.0188C17.2586 27.8822 17.3263 27.7005 17.3198 27.5138" fill="white"/>
<path d="M30.2668 26.2548C30.5497 26.2445 30.8319 26.2904 31.0972 26.3899C31.3624 26.4894 31.6054 26.6405 31.8122 26.8346C32.0195 27.0281 32.1867 27.2608 32.304 27.5194C32.4214 27.7779 32.4867 28.0572 32.4962 28.3412C32.5065 28.6251 32.4607 28.9083 32.3616 29.1744C32.2625 29.4406 32.1119 29.6845 31.9186 29.892C31.7257 30.1001 31.4939 30.2678 31.2362 30.3857C30.9786 30.5035 30.7003 30.569 30.4173 30.5786C30.1344 30.5889 29.8523 30.5429 29.5871 30.4434C29.3219 30.3439 29.079 30.1928 28.8722 29.9987C28.6648 29.8052 28.4977 29.5725 28.3802 29.314C28.2628 29.0554 28.1974 28.7761 28.1879 28.4921C28.1777 28.2082 28.2235 27.925 28.3226 27.6589C28.4218 27.3928 28.5724 27.1489 28.7657 26.9414C28.9585 26.7334 29.1904 26.5656 29.448 26.4478C29.7057 26.3299 29.9838 26.2644 30.2668 26.2548Z" fill="black"/>
<path d="M17.1908 25.2531C18.6296 25.2027 19.8367 26.3323 19.8869 27.7761C19.9372 29.2199 18.8116 30.4314 17.3728 30.4818C15.934 30.5322 14.7271 29.4026 14.6769 27.9587C14.6267 26.5148 15.7521 25.3035 17.1908 25.2531ZM18.9852 27.8077C18.9524 26.8636 18.1631 26.125 17.2222 26.1581C16.2817 26.191 15.5457 26.983 15.5787 27.9271C15.6115 28.8713 16.4006 29.6098 17.3413 29.5768C18.282 29.5439 19.018 28.7519 18.9852 27.8077ZM30.251 25.8021C31.6899 25.7517 32.8969 26.8813 32.9471 28.3251C32.9973 29.7689 31.8718 30.9804 30.4331 31.0308C28.9944 31.0812 27.7873 29.9516 27.7371 28.5078C27.6868 27.064 28.8124 25.8525 30.251 25.8021ZM32.0453 28.3567C32.0125 27.4126 31.2234 26.6741 30.2825 26.7071C29.3417 26.74 28.6059 27.5321 28.6388 28.4762C28.6718 29.4203 29.4608 30.1589 30.4015 30.126C31.3423 30.0929 32.0781 29.3009 32.0453 28.3567Z" fill="white"/>
<path d="M30.3799 28.063C30.3772 27.9702 30.3562 27.8789 30.3182 27.7943C30.2802 27.7096 30.2259 27.6334 30.1584 27.5699C30.091 27.5064 30.0116 27.4569 29.9251 27.4243C29.8385 27.3917 29.7463 27.3766 29.6539 27.3798C29.5614 27.3831 29.4706 27.4046 29.3864 27.4432C29.3023 27.4818 29.2267 27.5368 29.1638 27.6048C29.1009 27.6729 29.052 27.7527 29.02 27.8398C28.988 27.9269 28.9734 28.0195 28.9771 28.1122C28.9846 28.2982 29.0652 28.4737 29.2012 28.6002C29.3372 28.7268 29.5176 28.7942 29.7029 28.7877C29.8883 28.7812 30.0636 28.7013 30.1904 28.5655C30.3173 28.4297 30.3854 28.249 30.3799 28.063Z" fill="white"/>
<path d="M13.1445 35.1907L16.415 38.6059L18.7616 36.1007C18.8623 35.996 19 35.9354 19.1449 35.9318C19.2898 35.9283 19.4303 35.9822 19.536 36.0819C19.6416 36.1815 19.7039 36.3189 19.7093 36.4643C19.7148 36.6097 19.6629 36.7514 19.5651 36.8587L17.1802 39.4051L20.5635 42.9381C20.6137 42.9905 20.6531 43.0523 20.6794 43.12C20.7058 43.1877 20.7186 43.2599 20.7172 43.3326C20.7158 43.4052 20.7001 43.4769 20.671 43.5435C20.642 43.6101 20.6002 43.6702 20.5479 43.7206C20.4957 43.771 20.4341 43.8105 20.3667 43.837C20.2992 43.8635 20.2273 43.8763 20.1549 43.8749C20.0824 43.8734 20.011 43.8577 19.9447 43.8286C19.8783 43.7994 19.8184 43.7574 19.7682 43.705L16.4239 40.2125L14.8531 41.8896C14.8035 41.9425 14.744 41.9852 14.678 42.015C14.612 42.0449 14.5408 42.0614 14.4684 42.0637C14.396 42.0659 14.3239 42.0538 14.2562 42.0281C14.1884 42.0024 14.1264 41.9635 14.0737 41.9137C14.0209 41.8639 13.9784 41.8042 13.9487 41.738C13.9189 41.6717 13.9025 41.6002 13.9002 41.5276C13.898 41.4549 13.91 41.3826 13.9357 41.3146C13.9613 41.2466 14 41.1844 14.0497 41.1315L15.6587 39.4135L12.3494 35.9577C12.2992 35.9053 12.2598 35.8435 12.2334 35.7758C12.2071 35.7081 12.1942 35.6359 12.1957 35.5632C12.1971 35.4905 12.2128 35.4189 12.2418 35.3523C12.2709 35.2857 12.3127 35.2255 12.3649 35.1751C12.4171 35.1248 12.4787 35.0852 12.5462 35.0588C12.6136 35.0323 12.6856 35.0194 12.758 35.0209C12.8304 35.0223 12.9018 35.0381 12.9682 35.0672C13.0345 35.0963 13.0943 35.1383 13.1445 35.1907ZM35.1073 35.1907C35.2086 35.0849 35.3477 35.0238 35.4939 35.0209C35.5663 35.0195 35.6383 35.0324 35.7057 35.0588C35.7732 35.0853 35.8347 35.1249 35.8869 35.1752C35.9392 35.2256 35.981 35.2858 36.01 35.3523C36.039 35.4189 36.0547 35.4906 36.0561 35.5632C36.0576 35.6359 36.0447 35.7081 36.0184 35.7758C35.992 35.8435 35.9526 35.9053 35.9024 35.9577L32.593 39.4135L34.2023 41.1315C34.2994 41.2352 34.353 41.3725 34.3519 41.5149C34.3507 41.6573 34.295 41.7938 34.1961 41.8959L34.1781 41.9137C34.1254 41.9635 34.0633 42.0023 33.9956 42.0281C33.9279 42.0538 33.8558 42.0658 33.7834 42.0636C33.711 42.0613 33.6398 42.0448 33.5738 42.0149C33.5078 41.985 33.4483 41.9424 33.3987 41.8895L31.8279 40.2123L28.4836 43.705C28.3853 43.8077 28.2513 43.8684 28.1095 43.8745C27.9678 43.8805 27.8291 43.8315 27.7224 43.7377L27.7038 43.7206C27.6516 43.6702 27.6098 43.61 27.5808 43.5435C27.5517 43.4769 27.5361 43.4052 27.5346 43.3325C27.5332 43.2599 27.5461 43.1876 27.5725 43.1199C27.5989 43.0523 27.6383 42.9904 27.6885 42.9381L31.0717 39.4051L28.6867 36.8587C28.5896 36.755 28.5361 36.6177 28.5372 36.4753C28.5384 36.333 28.5941 36.1965 28.6929 36.0944L28.7109 36.0766C28.8174 35.9761 28.9594 35.9222 29.1055 35.9267C29.2517 35.9312 29.39 35.9938 29.4902 36.1007L31.8367 38.6059L35.1073 35.1907Z" fill="#ECB732"/>
<path d="M27.5737 18.0785C27.6771 18.1823 27.7351 18.323 27.7351 18.4697C27.7351 18.6165 27.6771 18.7572 27.5737 18.8609L25.0063 21.4377L26.571 23.0084C26.6714 23.1091 26.7292 23.2447 26.7325 23.3871C26.7358 23.5294 26.6842 23.6676 26.5886 23.7728L26.571 23.7911C26.4676 23.8949 26.3274 23.9532 26.1812 23.9532C26.0349 23.9532 25.8947 23.8949 25.7913 23.7911L24.2262 22.2204L22.6611 23.7911C22.61 23.8427 22.5492 23.8837 22.4822 23.9116C22.4153 23.9396 22.3435 23.954 22.271 23.9541C22.1984 23.9542 22.1266 23.9399 22.0596 23.9121C21.9926 23.8842 21.9317 23.8434 21.8804 23.792C21.8291 23.7405 21.7885 23.6794 21.7608 23.6121C21.7331 23.5449 21.7189 23.4728 21.719 23.4C21.719 23.3272 21.7334 23.2552 21.7613 23.188C21.7892 23.1208 21.83 23.0598 21.8814 23.0084L23.4463 21.4377L20.8789 18.8611C20.7785 18.7604 20.7207 18.6248 20.7174 18.4825C20.7142 18.3401 20.7657 18.202 20.8613 18.0968L20.8789 18.0784C20.9823 17.9746 21.1225 17.9163 21.2688 17.9163C21.415 17.9163 21.5552 17.9746 21.6586 18.0784L24.2262 20.655L26.7938 18.0784C26.845 18.027 26.9058 17.9862 26.9727 17.9584C27.0396 17.9306 27.1113 17.9163 27.1838 17.9163C27.2562 17.9163 27.3279 17.9306 27.3948 17.9584C27.4617 17.9862 27.5225 18.0271 27.5737 18.0785Z" fill="#FFC73B"/>
</g>
<defs>
<linearGradient id="paint0_linear_242_123" x1="515.755" y1="-387.628" x2="683.136" y2="421.737" gradientUnits="userSpaceOnUse">
<stop stop-color="#52CE63"/>
<stop offset="1" stop-color="#51A256"/>
</linearGradient>
<linearGradient id="paint1_linear_242_123" x1="435.215" y1="516.627" x2="-371.822" y2="682.114" gradientUnits="userSpaceOnUse">
<stop stop-color="#52CE63"/>
<stop offset="1" stop-color="#51A256"/>
</linearGradient>
<linearGradient id="paint2_linear_242_123" x1="535.095" y1="62.5975" x2="378.788" y2="1331.06" gradientUnits="userSpaceOnUse">
<stop stop-color="#8AE99C"/>
<stop offset="1" stop-color="#52CE63"/>
</linearGradient>
<linearGradient id="paint3_linear_242_123" x1="1559.5" y1="599.92" x2="1307.2" y2="3360.63" gradientUnits="userSpaceOnUse">
<stop stop-color="#FFE56C"/>
<stop offset="1" stop-color="#FFC63A"/>
</linearGradient>
<clipPath id="clip0_242_123">
<rect width="48" height="48" fill="white"/>
</clipPath>
</defs>
</svg>
