<svg width="48" height="48" viewBox="0 0 48 48" fill="none" xmlns="http://www.w3.org/2000/svg">
<g clip-path="url(#clip0_178_316)">
<path d="M47.8037 27.0474C49.4835 13.8979 40.197 1.87594 27.0714 0.196312C13.9459 -1.4835 1.87594 7.803 0.196312 20.9286C-1.4835 34.0541 7.803 46.1001 20.9286 47.8037C34.0781 49.4835 46.1001 40.197 47.8037 27.0474Z" fill="#FF6C37"/>
<path d="M32.6626 15.4095L22.5363 25.5358L19.6807 22.6802C29.639 12.7221 30.623 13.5859 32.6626 15.4095Z" fill="white"/>
<path d="M22.5361 25.7756C22.4641 25.7756 22.4161 25.7516 22.3681 25.7036L19.4887 22.8482C19.4659 22.8265 19.4479 22.8005 19.4355 22.7716C19.4231 22.7428 19.4167 22.7117 19.4167 22.6803C19.4167 22.6489 19.4231 22.6178 19.4355 22.589C19.4479 22.5601 19.4659 22.5341 19.4887 22.5124C29.6148 12.3861 30.6706 13.3459 32.8062 15.2655C32.8542 15.3135 32.8782 15.3615 32.8782 15.4335C32.8782 15.5055 32.8542 15.5535 32.8062 15.6015L22.6801 25.7036C22.6561 25.7516 22.5841 25.7756 22.5361 25.7756ZM20.0167 22.6802L22.5361 25.1998L32.3024 15.4335C30.5268 13.8499 29.3268 13.3697 20.0167 22.6802Z" fill="#FF6C37"/>
<path d="M25.4396 28.4393L22.6802 25.6797L32.8063 15.5535C35.5179 18.2892 31.4627 22.7282 25.4396 28.4393Z" fill="white"/>
<path d="M25.4395 28.6793C25.3675 28.6793 25.3196 28.6553 25.2717 28.6073L22.5121 25.8476C22.4641 25.7996 22.4641 25.7516 22.4641 25.6796C22.4641 25.6078 22.4881 25.5596 22.5361 25.5118L32.6624 15.3855C32.6841 15.3627 32.7102 15.3446 32.739 15.3322C32.7679 15.3199 32.799 15.3135 32.8304 15.3135C32.8618 15.3135 32.8929 15.3199 32.9218 15.3322C32.9507 15.3446 32.9768 15.3627 32.9984 15.3855C33.3048 15.669 33.5468 16.0149 33.7083 16.3999C33.8697 16.7848 33.9468 17.1999 33.9342 17.6171C33.8862 20.2808 30.863 23.664 25.6317 28.6073C25.5597 28.6553 25.4877 28.6793 25.4397 28.6793M23.0163 25.6796C24.5519 27.2394 25.1999 27.8633 25.4397 28.1033C29.471 24.264 33.3822 20.3288 33.4064 17.6171C33.4304 16.9933 33.1904 16.3693 32.7824 15.8895L23.0163 25.6796Z" fill="#FF6C37"/>
<path d="M19.7288 22.7522L21.7684 24.7918C21.8164 24.8398 21.8164 24.8878 21.7684 24.9358C21.7444 24.9598 21.7444 24.9598 21.7204 24.9598L17.4972 25.8716C17.2812 25.8956 17.0892 25.7516 17.0412 25.5358C17.0172 25.4158 17.0652 25.2958 17.1372 25.2238L19.5848 22.7762C19.6328 22.7282 19.7048 22.7042 19.7288 22.7522Z" fill="white"/>
<path d="M17.4251 26.1117C17.0651 26.1117 16.8013 25.8237 16.8013 25.4638C16.8013 25.2958 16.8733 25.1278 16.9933 25.0078L19.4407 22.5602C19.5847 22.4402 19.7767 22.4402 19.9207 22.5602L21.9603 24.5998C22.1043 24.7198 22.1043 24.9358 21.9603 25.0798C21.9123 25.1278 21.8643 25.1518 21.7923 25.1758L17.5691 26.0877C17.5211 26.0877 17.4731 26.1117 17.4251 26.1117ZM19.6567 23.0162L17.3051 25.3678C17.2571 25.4158 17.2331 25.4878 17.2811 25.5598C17.3051 25.6318 17.3771 25.6557 17.4491 25.6318L21.4083 24.7678L19.6567 23.0162Z" fill="#FF6C37"/>
<path d="M38.0134 9.7946C36.4778 8.30679 34.0062 8.35479 32.5185 9.9146C31.0307 11.4742 31.0787 13.9219 32.6385 15.4095C33.2542 16.0043 34.0494 16.3786 34.9001 16.4741C35.7508 16.5696 36.6092 16.3809 37.3414 15.9375L34.6058 13.2019L38.0134 9.7946Z" fill="white"/>
<path d="M35.326 16.7293C33.0464 16.7293 31.1987 14.8817 31.1987 12.602C31.1987 10.3224 33.0464 8.47479 35.326 8.47479C36.3816 8.47479 37.4136 8.88279 38.1816 9.6266C38.2294 9.6746 38.2534 9.7226 38.2534 9.7946C38.2534 9.8666 38.2294 9.9146 38.1814 9.9626L34.942 13.2019L37.4856 15.7455C37.5816 15.8415 37.5816 15.9855 37.4856 16.0815L37.4376 16.1295C36.8136 16.5133 36.0698 16.7293 35.326 16.7293ZM35.326 8.97898C33.3104 8.97898 31.6785 10.6106 31.7025 12.6262C31.7025 14.6419 33.3344 16.2737 35.35 16.2497C35.9018 16.2497 36.4538 16.1297 36.9576 15.8657L34.4382 13.37C34.3902 13.322 34.3662 13.274 34.3662 13.202C34.3662 13.1302 34.3902 13.082 34.4382 13.0342L37.6536 9.8186C37.0056 9.26679 36.1898 8.97898 35.326 8.97898Z" fill="#FF6C37"/>
<path d="M38.0855 9.8666L38.0375 9.8186L34.6062 13.2019L37.3176 15.9135C37.5816 15.7455 37.8455 15.5535 38.0615 15.3375C38.425 14.9814 38.7142 14.5567 38.9124 14.088C39.1107 13.6193 39.2139 13.1159 39.2161 12.6071C39.2183 12.0982 39.1195 11.5939 38.9255 11.1235C38.7314 10.6531 38.4459 10.2259 38.0855 9.8666Z" fill="white"/>
<path d="M37.3416 16.1775C37.2696 16.1775 37.2216 16.1535 37.1736 16.1055L34.438 13.3699C34.3902 13.3219 34.3662 13.2739 34.3662 13.2019C34.3662 13.1301 34.3902 13.0819 34.4382 13.0341L37.8455 9.62665C37.8671 9.60389 37.8932 9.58577 37.9221 9.57339C37.9509 9.56101 37.982 9.55463 38.0135 9.55463C38.0449 9.55463 38.076 9.56101 38.1049 9.57339C38.1337 9.58577 38.1598 9.60389 38.1815 9.62665L38.2535 9.67465C39.8613 11.2823 39.8613 13.8739 38.2775 15.5055C38.0375 15.7455 37.7737 15.9615 37.4857 16.1295C37.4137 16.1535 37.3656 16.1775 37.3416 16.1775ZM34.942 13.2019L37.3657 15.6255C37.5577 15.5055 37.7497 15.3375 37.8935 15.1937C39.2613 13.8259 39.3333 11.5943 38.0135 10.1545L34.942 13.2019Z" fill="#FF6C37"/>
<path d="M33.0702 15.8415C32.7932 15.565 32.4178 15.4097 32.0264 15.4097C31.635 15.4097 31.2596 15.565 30.9826 15.8415L21.9363 24.8878L23.4479 26.3996L33.0222 18.0011C33.6462 17.4731 33.694 16.5373 33.1662 15.9135C33.1182 15.8895 33.0942 15.8655 33.0702 15.8415Z" fill="white"/>
<path d="M23.424 26.6396C23.352 26.6396 23.304 26.6156 23.256 26.5676L21.7444 25.0558C21.7216 25.0342 21.7035 25.0081 21.6911 24.9792C21.6787 24.9503 21.6724 24.9193 21.6724 24.8878C21.6724 24.8564 21.6787 24.8253 21.6911 24.7964C21.7035 24.7676 21.7216 24.7415 21.7444 24.7198L30.7907 15.6735C30.9495 15.5138 31.1383 15.3871 31.3463 15.3006C31.5543 15.2141 31.7773 15.1696 32.0025 15.1696C32.2277 15.1696 32.4508 15.2141 32.6587 15.3006C32.8667 15.3871 33.0555 15.5138 33.2143 15.6735C33.374 15.8323 33.5008 16.0212 33.5872 16.2291C33.6737 16.4371 33.7182 16.6601 33.7182 16.8853C33.7182 17.1106 33.6737 17.3336 33.5872 17.5415C33.5008 17.7495 33.374 17.9383 33.2143 18.0971L33.1423 18.1691L23.568 26.5676C23.544 26.6156 23.496 26.6396 23.424 26.6396ZM22.2722 24.8878L23.448 26.0636L32.8543 17.8091C33.3823 17.3771 33.4303 16.5853 32.9983 16.0575C32.5665 15.5295 31.7745 15.4815 31.2467 15.9135C31.2227 15.9375 31.1987 15.9615 31.1507 15.9855L22.2722 24.8878Z" fill="#FF6C37"/>
<path d="M15.0015 35.1819C14.9057 35.2299 14.8577 35.3259 14.8815 35.4219L15.2895 37.1495C15.3855 37.3895 15.2415 37.6775 14.9775 37.7495C14.7857 37.8215 14.5697 37.7495 14.4497 37.6055L11.8101 34.9899L20.4246 26.3756L23.4002 26.4236L25.4158 28.4392C24.9358 28.847 22.0324 31.6547 15.0015 35.1819Z" fill="white"/>
<path d="M14.8096 37.9894C14.6176 37.9894 14.4256 37.9176 14.3056 37.7736L11.69 35.1579C11.6422 35.1099 11.6182 35.0619 11.6182 34.9901C11.6182 34.9181 11.6422 34.8701 11.6902 34.8221L20.3045 26.2076C20.3525 26.1596 20.4245 26.1356 20.4725 26.1356L23.4481 26.1836C23.5199 26.1836 23.5681 26.2076 23.6159 26.2556L25.6315 28.2712C25.6795 28.3192 25.7035 28.3912 25.7035 28.4632C25.7035 28.5352 25.6795 28.5832 25.6075 28.6312L25.4395 28.7751C22.8961 31.0067 19.4407 33.2383 15.1454 35.3739L15.5534 37.0777C15.6254 37.3896 15.4814 37.7256 15.1934 37.8934C15.0494 37.9656 14.9294 37.9894 14.8096 37.9894ZM12.17 34.9903L14.6416 37.4377C14.7136 37.5577 14.8576 37.6057 14.9774 37.5337C15.0974 37.4617 15.1454 37.3177 15.0734 37.1977L14.6656 35.4701C14.6176 35.2541 14.7136 35.0621 14.9056 34.9663C19.1527 32.8307 22.5841 30.6231 25.1037 28.4394L23.3281 26.6638L20.5685 26.6158L12.17 34.9903Z" fill="#FF6C37"/>
<path d="M9.77052 37.0537L11.834 34.9901L14.9056 38.0614L10.0103 37.7256C9.79433 37.7016 9.65033 37.5096 9.67452 37.2936C9.67452 37.1976 9.69852 37.1016 9.77033 37.0536" fill="white"/>
<path d="M14.9057 38.2774L9.98642 37.9416C9.62642 37.9176 9.38642 37.6056 9.41061 37.2456C9.43461 37.1016 9.48261 36.9578 9.60261 36.8618L11.6662 34.7982C11.6879 34.7754 11.7139 34.7573 11.7428 34.745C11.7717 34.7326 11.8027 34.7262 11.8341 34.7262C11.8655 34.7262 11.8966 34.7326 11.9255 34.745C11.9543 34.7573 11.9804 34.7754 12.002 34.7982L15.0735 37.8694C15.1455 37.9416 15.1695 38.0376 15.1215 38.1334C15.0735 38.2294 15.0015 38.2774 14.9057 38.2774ZM11.834 35.3262L9.93842 37.2218C9.86642 37.2696 9.86642 37.3896 9.93842 37.4376C9.96242 37.4616 9.98642 37.4856 10.0344 37.4856L14.2817 37.7736L11.834 35.3262ZM19.5847 27.4795C19.4407 27.4795 19.3447 27.3595 19.3447 27.2395C19.3447 27.1675 19.3687 27.1195 19.4167 27.0715L21.7444 24.7438C21.766 24.7211 21.7921 24.703 21.821 24.6906C21.8498 24.6782 21.8809 24.6718 21.9124 24.6718C21.9438 24.6718 21.9749 24.6782 22.0038 24.6906C22.0326 24.703 22.0587 24.7211 22.0804 24.7438L23.592 26.2557C23.664 26.3277 23.688 26.3997 23.664 26.4957C23.64 26.5677 23.568 26.6397 23.472 26.6637L19.6327 27.4793L19.5847 27.4795ZM21.9124 25.2478L20.3285 26.8315L22.9202 26.2797L21.9124 25.2478Z" fill="#FF6C37"/>
<path d="M23.3999 26.4236L20.7605 26.9994C20.5685 27.0474 20.3765 26.9274 20.3285 26.7354C20.3045 26.6154 20.3285 26.4954 20.4245 26.3996L21.8883 24.9358L23.3999 26.4236Z" fill="white"/>
<path d="M20.7126 27.2394C20.6336 27.2402 20.5552 27.2252 20.4821 27.1953C20.4089 27.1654 20.3425 27.1212 20.2866 27.0654C20.2308 27.0095 20.1866 26.9431 20.1567 26.8699C20.1268 26.7968 20.1118 26.7184 20.1126 26.6394C20.1126 26.4716 20.1846 26.3276 20.2806 26.2076L21.7444 24.7438C21.7661 24.721 21.7921 24.7029 21.821 24.6905C21.8499 24.6782 21.881 24.6718 21.9124 24.6718C21.9438 24.6718 21.9749 24.6782 22.0038 24.6905C22.0327 24.7029 22.0587 24.721 22.0804 24.7438L23.592 26.2556C23.664 26.3276 23.688 26.3996 23.664 26.4956C23.64 26.5676 23.568 26.6396 23.472 26.6636L20.8326 27.2394H20.7126ZM21.9124 25.2478L20.6166 26.5434C20.5686 26.5916 20.5686 26.6396 20.5926 26.6874C20.6166 26.7354 20.6646 26.7594 20.7366 26.7594L22.9442 26.2794L21.9124 25.2478ZM38.1094 12.17C38.0614 12.0262 37.8934 11.9542 37.7494 12.0022C37.6056 12.0502 37.5336 12.218 37.5816 12.3622C37.5816 12.386 37.6056 12.4101 37.6056 12.4341C37.7496 12.7221 37.7016 13.0821 37.5096 13.3459C37.4136 13.4659 37.4376 13.6339 37.5336 13.7299C37.6536 13.8259 37.8214 13.8019 37.9174 13.6819C38.2774 13.2259 38.3494 12.65 38.1094 12.17Z" fill="#FF6C37"/>
</g>
<defs>
<clipPath id="clip0_178_316">
<rect width="48" height="48" fill="white"/>
</clipPath>
</defs>
</svg>
