<svg width="48" height="48" viewBox="0 0 48 48" fill="none" xmlns="http://www.w3.org/2000/svg">
<path d="M24 16.77C36.6886 16.77 44.4545 21.1406 44.4545 23.52C44.4545 25.8994 36.6886 30.27 24 30.27C11.3114 30.27 3.54544 25.8994 3.54544 23.52C3.54544 21.1406 11.3114 16.77 24 16.77ZM24 13.395C10.8204 13.395 0.136353 17.9276 0.136353 23.52C0.136353 29.1124 10.8204 33.645 24 33.645C37.1795 33.645 47.8636 29.1124 47.8636 23.52C47.8636 17.9276 37.1795 13.395 24 13.395Z" fill="#0288D1"/>
<path d="M24 20.145C23.3258 20.145 22.6667 20.343 22.106 20.7138C21.5454 21.0847 21.1085 21.6118 20.8504 22.2285C20.5924 22.8452 20.5249 23.5238 20.6564 24.1784C20.788 24.8331 21.1127 25.4345 21.5894 25.9065C22.0662 26.3785 22.6737 26.6999 23.335 26.8302C23.9963 26.9604 24.6817 26.8936 25.3046 26.6381C25.9276 26.3827 26.46 25.9501 26.8346 25.3951C27.2092 24.8401 27.4091 24.1875 27.4091 23.52C27.4091 22.6249 27.05 21.7665 26.4106 21.1335C25.7713 20.5006 24.9042 20.145 24 20.145Z" fill="#0288D1"/>
<path d="M14.5535 5.81311C17.9915 5.81311 24.6734 11.1743 29.9046 20.145C36.2489 31.0244 36.3086 39.8669 34.2273 41.0565C33.9872 41.1798 33.7185 41.238 33.4484 41.2253C30.0103 41.2253 23.3268 35.8658 18.0955 26.895C11.7512 16.0157 11.6915 7.17323 13.7728 5.98355C14.0134 5.86001 14.2828 5.8001 14.5535 5.81311ZM14.5518 2.4398C13.6831 2.42424 12.8258 2.638 12.0682 3.05911C7.1762 5.8553 8.55347 17.283 15.1432 28.5825C20.741 38.1844 28.3023 44.602 33.4501 44.602C34.3185 44.6162 35.1751 44.4013 35.9319 43.9793C40.8239 41.1848 39.4467 29.757 32.8569 18.4575C27.2592 8.85567 19.6978 2.43811 14.5501 2.43811L14.5518 2.4398Z" fill="#0288D1"/>
<path d="M33.4482 5.81295C33.7184 5.80024 33.9871 5.85845 34.2272 5.9817C36.3084 7.17307 36.2488 16.0156 29.9045 26.8949C24.6715 35.8656 17.9897 41.2268 14.5516 41.2268C14.2815 41.2395 14.0127 41.1813 13.7727 41.0581C11.6914 39.865 11.7511 31.0225 18.0954 20.1449C23.3283 11.1741 30.0101 5.81295 33.4482 5.81295ZM33.4482 2.43795C28.3005 2.43795 20.7408 8.8572 15.1414 18.4574C8.55504 29.7569 7.17606 41.1846 12.0681 43.9791C12.8254 44.4014 13.6826 44.6164 14.5516 44.6018C19.6994 44.6018 27.259 38.1826 32.8584 28.5824C39.4448 17.2829 40.8238 5.85513 35.9317 3.06063C35.1745 2.63835 34.3172 2.42341 33.4482 2.43795Z" fill="#0288D1"/>
</svg>
