<svg width="49" height="49" viewBox="0 0 49 49" fill="none" xmlns="http://www.w3.org/2000/svg">
<g clip-path="url(#clip0_242_95)">
<path d="M33.7587 33.5411C30.3837 40.4411 24.4737 45.0836 16.6549 46.6098C15.4561 46.9036 14.2254 47.0472 12.9912 47.0373C8.4912 47.0373 4.3662 45.1623 2.3637 42.0911C-0.325054 37.9998 -1.24005 29.3261 7.62495 22.9098C7.80495 23.8886 8.17245 25.2311 8.4162 26.0261C6.67594 27.319 5.25148 28.9896 4.24995 30.9123C2.59995 34.1523 2.7837 37.3886 4.73745 40.3811C6.08745 42.3986 8.22495 43.6248 10.9737 43.9998C14.407 44.4344 17.8899 43.7785 20.9299 42.1248C25.6962 39.6198 28.8724 36.6273 30.9499 32.5361C30.3625 31.929 30.0148 31.1297 29.9712 30.2861C29.9398 29.3808 30.2688 28.5 30.8861 27.837C31.5034 27.1741 32.3585 26.7831 33.2637 26.7498H33.3912C34.2717 26.7454 35.1202 27.0797 35.7611 27.6834C36.402 28.2871 36.7863 29.1141 36.8345 29.9933C36.8827 30.8725 36.591 31.7365 36.0199 32.4067C35.4488 33.0768 34.6419 33.5018 33.7662 33.5936L33.7587 33.5411ZM44.5099 25.9661C49.0887 31.1561 49.2124 37.2648 47.4424 40.8086C45.7924 44.0448 41.4424 47.2848 35.5924 47.2848C32.8616 47.2291 30.1751 46.5831 27.7174 45.3911C28.5762 44.7798 29.7949 43.8011 30.4662 43.1898C32.3614 44.0109 34.401 44.4468 36.4662 44.4723C40.2537 44.4723 43.1224 42.7023 44.8324 39.4661C45.9312 37.3286 45.9949 34.8236 44.9562 32.2586C43.6816 29.0313 41.4135 26.293 38.4799 24.4398C34.6312 21.8454 30.094 20.4623 25.4524 20.4686H24.3537C24.0975 21.0604 23.6807 21.5687 23.1505 21.9359C22.6203 22.3031 21.9978 22.5144 21.3537 22.5461H21.2374C20.3465 22.5351 19.4949 22.1773 18.8636 21.5486C18.2323 20.9198 17.8709 20.0698 17.8562 19.1789C17.8416 18.288 18.1748 17.4265 18.7852 16.7773C19.3955 16.1282 20.2348 15.7426 21.1249 15.7023H21.2487C21.869 15.7028 22.4771 15.8742 23.0064 16.1977C23.5356 16.5212 23.9654 16.9843 24.2487 17.5361H25.2274C33.0274 17.5361 39.8749 20.5286 44.5099 25.9661ZM13.4787 34.5911C13.4145 33.9684 13.5653 33.3424 13.9062 32.8173C10.4862 26.8923 8.6562 19.3811 11.4649 11.5623C13.4787 5.68609 18.5487 1.71484 24.0462 1.71484C29.9112 1.71484 36.0199 6.84859 36.7512 16.7411C35.8362 16.4373 34.5012 15.9911 33.6987 15.8261C33.4999 12.5898 30.7662 4.52734 24.2899 4.64734C21.9687 4.71109 18.5487 5.80984 16.7899 8.06734C14.6144 10.7622 13.3489 14.0771 13.1749 17.5361C12.7627 22.279 13.8755 27.0296 16.3512 31.0961C16.4879 31.0462 16.6336 31.0257 16.7787 31.0361H16.8987C17.8057 31.0197 18.6821 31.3643 19.3351 31.994C19.9881 32.6238 20.3642 33.4872 20.3806 34.3942C20.397 35.3013 20.0524 36.1777 19.4226 36.8306C18.7929 37.4836 17.9295 37.8597 17.0224 37.8761H16.8987C16.0138 37.8729 15.1643 37.5284 14.5271 36.9144C13.89 36.3003 13.5144 35.464 13.4787 34.5798V34.5911Z" fill="#764ABC"/>
</g>
<defs>
<clipPath id="clip0_242_95">
<rect width="48" height="48" fill="white" transform="translate(0.5 0.5)"/>
</clipPath>
</defs>
</svg>
