<svg width="48" height="48" viewBox="0 0 48 48" fill="none" xmlns="http://www.w3.org/2000/svg">
<path d="M36.8534 40.0591H31.6212C31.4324 40.0591 31.2782 39.905 31.2782 39.716V38.4425C31.2782 38.2537 31.1238 38.0994 30.9351 38.0994H23.6139C23.425 38.0994 23.2707 38.2537 23.2707 38.4425V39.716C23.2707 39.905 23.1163 40.0591 22.9275 40.0591H18.9941C18.8052 40.0591 18.6509 40.2135 18.6509 40.4022V41.8755C18.6509 42.0642 18.8052 42.2186 18.9941 42.2186H36.8531C37.0419 42.2186 37.1962 42.0642 37.1962 41.8755V40.4022C37.1965 40.2138 37.0421 40.0591 36.8534 40.0591Z" fill="black"/>
<path d="M45.6441 5.61328H8.30888C7.00989 5.61328 5.95315 6.67014 5.95315 7.96937C5.95315 7.96937 5.95315 12.4618 5.95315 14.1146C5.95315 14.927 5.89286 15.0419 6.43788 15.0419C6.72734 15.0419 7.04791 15.0419 7.37247 15.0419C7.82984 15.0419 7.73602 14.927 7.73602 14.0994C7.73602 12.4504 7.73602 7.96937 7.73602 7.96937C7.73602 7.65885 7.99848 7.39639 8.30888 7.39639H45.6441C45.9544 7.39639 46.2169 7.65885 46.2169 7.96937V30.9709H19.5992C19.5992 30.9709 18.6611 30.9692 18.6611 32.1822C18.6611 32.9014 18.6611 34.3399 18.6611 35.0593C18.6611 36.2707 19.6295 36.2707 19.6295 36.2707H45.6441C46.943 36.2707 48.0001 35.2139 48.0001 33.9149V7.96937C48.0001 6.67027 46.9432 5.61328 45.6441 5.61328ZM26.9766 34.2365C26.3901 34.2365 25.9148 33.7612 25.9148 33.175C25.9148 32.5888 26.3901 32.1133 26.9766 32.1133C27.5626 32.1133 28.038 32.5888 28.038 33.175C28.038 33.7612 27.5626 34.2365 26.9766 34.2365Z" fill="black"/>
<path d="M15.0267 17.1462H1.52041C0.681816 17.1462 0 17.8282 0 18.6668V40.866C0 41.7045 0.681816 42.3866 1.52041 42.3866H15.0267C15.8648 42.3866 16.5471 41.7045 16.5471 40.866V18.6668C16.5471 17.8282 15.8648 17.1462 15.0267 17.1462ZM6.60751 18.697H9.93948C10.0984 18.697 10.2276 18.8258 10.2276 18.9853C10.2276 19.1444 10.0986 19.2733 9.93948 19.2733H6.60751C6.44832 19.2733 6.31951 19.1444 6.31951 18.9853C6.31951 18.8258 6.44832 18.697 6.60751 18.697ZM8.25334 41.3186C7.81873 41.3186 7.46644 40.9663 7.46644 40.5317C7.46644 40.0971 7.81873 39.7448 8.25334 39.7448C8.68795 39.7448 9.04024 40.0971 9.04024 40.5317C9.04024 40.9663 8.68795 41.3186 8.25334 41.3186ZM15.2407 39.0059C15.2407 39.2088 15.0783 39.3748 14.88 39.3748H1.6675C1.46908 39.3748 1.30673 39.2088 1.30673 39.0059V20.5592C1.30673 20.3563 1.4692 20.1904 1.6675 20.1904H14.88C15.0784 20.1904 15.2407 20.3564 15.2407 20.5592V39.0059Z" fill="black"/>
</svg>
