<svg width="48" height="48" viewBox="0 0 48 48" fill="none" xmlns="http://www.w3.org/2000/svg">
<g clip-path="url(#clip0_179_371)">
<path d="M39.709 31.8546C36.3054 31.8546 33.4254 33.9491 32.3781 37.0909H21.3817C21.3817 35.2582 20.8581 33.6873 20.0726 32.3782L38.6617 13.2655C39.4472 13.2655 40.2326 13.5273 41.0181 13.5273C44.6836 13.5273 47.5636 10.6473 47.5636 6.98186C47.5636 3.3164 44.6836 0.436401 41.0181 0.436401C37.3526 0.436401 34.4726 3.3164 34.4726 6.98186C34.4726 7.76731 34.7345 8.81458 34.9963 9.60004L16.669 28.4509C15.0981 27.1419 13.0036 26.6182 10.909 26.6182V15.6219C14.0508 14.5746 16.1454 11.6946 16.1454 8.29095C16.1454 3.84004 12.7417 0.436401 8.29083 0.436401C3.83992 0.436401 0.436279 3.84004 0.436279 8.29095C0.436279 11.6946 2.53082 14.5746 5.67264 15.6219V27.9273C2.53082 29.76 0.436279 33.1637 0.436279 36.8291C0.436279 42.5891 5.14901 47.3019 10.909 47.3019C14.8363 47.3019 18.2399 45.2073 19.8108 42.0655H32.1163C33.1636 44.9455 36.0436 47.3019 39.4472 47.3019C43.6363 47.3019 47.3017 43.8982 47.3017 39.4473C47.5636 35.2582 43.8981 31.8546 39.709 31.8546Z" fill="black"/>
</g>
<defs>
<clipPath id="clip0_179_371">
<rect width="48" height="48" fill="white"/>
</clipPath>
</defs>
</svg>
