<svg width="48" height="48" viewBox="0 0 48 48" fill="none" xmlns="http://www.w3.org/2000/svg">
<path d="M37.5403 12.048C36.0545 12.048 34.7585 12.4931 33.4865 12.9185C32.0006 10.3505 29.2188 8.65091 26.2254 8.65091C23.8908 8.65091 21.7679 9.71345 20.2603 11.1993C18.5606 9.07636 15.9926 7.56873 13.021 7.56873C8.07483 7.56873 3.82901 11.6225 3.82901 16.5709C3.82901 17.8233 4.2741 19.0953 4.69955 20.3695C3.4765 21.04 2.4553 22.0257 1.74204 23.2243C1.02878 24.4229 0.649482 25.7907 0.643555 27.1855C0.643555 31.4313 4.06246 35.0836 8.3301 35.0836C8.96719 35.0836 9.6021 35.0836 10.0276 34.8698C10.8785 38.0749 14.0814 40.4335 17.9257 40.4335C21.5345 40.4335 24.5279 38.2865 25.5883 35.2931C26.6705 35.7404 27.733 36.1658 28.7956 36.1658C31.5752 36.1658 34.1236 34.6167 35.3956 32.3215C36.0545 32.4916 36.733 32.4916 37.3286 32.4916C42.8705 32.4916 47.3476 28.0538 47.3476 22.3025C47.5614 16.5709 43.1017 12.048 37.5403 12.048Z" fill="#039BE5"/>
</svg>
