<svg width="48" height="48" viewBox="0 0 48 48" fill="none" xmlns="http://www.w3.org/2000/svg">
<path d="M35.7693 1.84619H12.2308C6.49554 1.84619 1.84619 6.49554 1.84619 12.2308V35.7693C1.84619 41.5045 6.49554 46.1539 12.2308 46.1539H35.7693C41.5045 46.1539 46.1539 41.5045 46.1539 35.7693V12.2308C46.1539 6.49554 41.5045 1.84619 35.7693 1.84619Z" fill="#CD6799"/>
<mask id="mask0_55_254" style="mask-type:luminance" maskUnits="userSpaceOnUse" x="6" y="11" width="36" height="26">
<path d="M6.69238 11.0193H41.3078V36.9651H6.69238V11.0193Z" fill="white"/>
</mask>
<g mask="url(#mask0_55_254)">
<path d="M36.4798 25.9319C35.2727 25.9381 34.2239 26.2289 33.3455 26.6584C33.0233 26.0203 32.701 25.4516 32.644 25.0345C32.5809 24.5479 32.5051 24.2509 32.5809 23.6696C32.6567 23.0882 32.998 22.2606 32.9916 22.1974C32.9852 22.1342 32.9158 21.8372 32.2207 21.8308C31.5256 21.8244 30.9254 21.9636 30.8558 22.1468C30.7862 22.33 30.6537 22.7471 30.5652 23.1768C30.4451 23.8087 29.1749 26.0646 28.4483 27.2462C28.2145 26.785 28.0123 26.3805 27.968 26.0582C27.9049 25.5717 27.829 25.2747 27.9049 24.6933C27.9807 24.112 28.322 23.2841 28.3156 23.221C28.3092 23.1578 28.2398 22.8608 27.5447 22.8546C26.8496 22.8483 26.2492 22.9871 26.1798 23.1704C26.1102 23.3537 26.0344 23.7835 25.889 24.2004C25.7438 24.6175 24.0567 28.3837 23.6143 29.3567C23.4355 29.7505 23.2481 30.1402 23.0519 30.5257C23.0519 30.5257 23.0455 30.5447 23.0267 30.5762C22.965 30.6971 22.9018 30.8171 22.837 30.9364V30.9428C22.7423 31.1134 22.6411 31.2713 22.5905 31.2713C22.5526 31.2713 22.4832 30.8164 22.6032 30.1972C22.856 28.8891 23.4563 26.8544 23.45 26.785C23.45 26.7471 23.5637 26.3931 23.0582 26.2098C22.5653 26.0265 22.3884 26.3299 22.3441 26.3299C22.2999 26.3299 22.2683 26.4374 22.2683 26.4374C22.2683 26.4374 22.8181 24.1499 21.2194 24.1499C20.2209 24.1499 18.8434 25.243 18.1611 26.2289C17.3853 26.651 16.6101 27.0744 15.8355 27.4989C15.4629 27.7075 15.0774 27.916 14.7171 28.1119C14.6918 28.0867 14.6665 28.055 14.6413 28.0297C12.7077 25.9634 9.1312 24.5038 9.28281 21.7297C9.33976 20.7186 9.6873 18.0646 16.1515 14.842C21.4721 12.2197 25.7059 12.9462 26.4389 14.5576C27.4877 16.8578 24.1704 21.1293 18.6729 21.7486C16.5749 21.9824 15.4755 21.1736 15.1975 20.8704C14.9068 20.5544 14.8625 20.5355 14.755 20.5987C14.5781 20.6933 14.6918 20.9777 14.755 21.142C14.9194 21.5717 15.5954 22.33 16.7391 22.7028C17.7503 23.0314 20.2083 23.2147 23.1845 22.0646C26.5147 20.7756 29.1181 17.1925 28.3535 14.1912C27.589 11.1454 22.5338 10.1407 17.7503 11.8405C14.9066 12.8516 11.8231 14.4439 9.60508 16.5165C6.96999 18.9811 6.55305 21.1231 6.7237 22.0203C7.33656 25.2051 11.7282 27.2777 13.4849 28.8132C13.3965 28.8638 13.3143 28.9081 13.2449 28.946C12.3665 29.382 9.01749 31.1323 8.18326 32.9839C7.23549 35.0817 8.33505 36.5856 9.06162 36.7878C11.3175 37.4134 13.6366 36.2886 14.8815 34.4308C16.1264 32.573 15.9747 30.1593 15.3995 29.0535C15.3933 29.0395 15.3847 29.0267 15.3743 29.0156C15.6019 28.8828 15.8355 28.7438 16.0631 28.6111C16.4813 28.364 16.9047 28.1259 17.3331 27.897C17.1184 28.4847 16.9603 29.1861 16.8845 30.1972C16.7899 31.3852 17.2764 32.9269 17.9145 33.5336C18.1989 33.7989 18.5338 33.8053 18.7487 33.8053C19.4944 33.8053 19.8293 33.186 20.2021 32.4531C20.6569 31.5556 21.0678 30.513 21.0678 30.513C21.0678 30.513 20.5558 33.3314 21.946 33.3314C22.4515 33.3314 22.9633 32.6742 23.1909 32.3393V32.3456C23.1909 32.3456 23.2036 32.3267 23.2288 32.2824C23.2794 32.2002 23.3109 32.1496 23.3109 32.1496V32.137C23.5132 31.7832 23.968 30.9807 24.6443 29.6473C25.5162 27.9286 26.3567 25.7802 26.3567 25.7802C26.3567 25.7802 26.4325 26.3047 26.6916 27.1766C26.8432 27.6886 27.1592 28.2509 27.4119 28.7944C27.2098 29.0787 27.0834 29.2366 27.0834 29.2366L27.0897 29.243C26.9254 29.4578 26.7485 29.6916 26.5526 29.919C25.8638 30.7406 25.0423 31.6822 24.9286 31.9539C24.7959 32.2762 24.8275 32.5098 25.0802 32.6995C25.2635 32.8385 25.592 32.8574 25.9269 32.8385C26.5462 32.7942 26.9824 32.6426 27.1971 32.5477C27.532 32.4278 27.9239 32.2445 28.2903 31.9728C28.9665 31.4736 29.3772 30.7595 29.3393 29.818C29.3203 29.2998 29.1496 28.7817 28.9412 28.2951C29.0044 28.2066 29.0612 28.1182 29.1244 28.0297C30.1924 26.4689 31.0201 24.7565 31.0201 24.7565C31.0201 24.7565 31.0959 25.2809 31.355 26.1531C31.4813 26.5953 31.7404 27.0756 31.968 27.5432C30.9633 28.3584 30.344 29.3062 30.1228 29.9254C29.7248 31.0755 30.0344 31.5936 30.622 31.7137C30.8875 31.7706 31.2665 31.6443 31.5447 31.5241C31.8984 31.4104 32.3155 31.2145 32.7136 30.9237C33.3897 30.4246 34.0406 29.7295 34.0027 28.788C33.9837 28.3584 33.8699 27.9349 33.7119 27.5242C34.565 27.1704 35.6646 26.9745 37.0674 27.1387C40.0753 27.4927 40.6693 29.3693 40.5554 30.1593C40.4417 30.949 39.8098 31.3788 39.6012 31.5115C39.3928 31.6443 39.3233 31.6884 39.3423 31.7832C39.3676 31.9222 39.4686 31.9158 39.6455 31.8906C39.892 31.8464 41.2252 31.2524 41.2821 29.7991C41.377 27.9413 39.6076 25.9128 36.4798 25.9319ZM13.2764 33.7548C12.2781 34.8415 10.8879 35.2524 10.2875 34.9049C9.64299 34.5319 9.89568 32.9269 11.1218 31.7768C11.8672 31.0755 12.8278 30.4246 13.4659 30.0265C13.6113 29.9381 13.8261 29.8117 14.0852 29.6537C14.1295 29.6284 14.1548 29.6158 14.1548 29.6158L14.3064 29.521C14.755 31.164 14.3252 32.6111 13.2764 33.7548ZM20.5434 28.8132C20.1958 29.6601 19.4693 31.8274 19.0269 31.7074C18.6478 31.6062 18.414 29.9633 18.9511 28.3394C19.2228 27.5242 19.7978 26.5511 20.1327 26.1719C20.6761 25.5653 21.2764 25.3631 21.4217 25.6096C21.605 25.9319 20.7583 28.2824 20.5434 28.8132ZM26.5401 31.6822C26.3948 31.758 26.2558 31.8085 26.1926 31.7706C26.1483 31.7453 26.2558 31.6443 26.2558 31.6443C26.2558 31.6443 27.0078 30.8353 27.3048 30.4689C27.4753 30.2539 27.6776 30.0012 27.8924 29.7169V29.7991C27.8924 30.7659 26.9573 31.4167 26.5401 31.6822ZM31.1656 30.6267C31.0581 30.5509 31.0772 30.2982 31.4374 29.5083C31.5763 29.1987 31.905 28.6807 32.4673 28.1813C32.5305 28.3837 32.5748 28.5794 32.5684 28.7627C32.5622 29.9824 31.69 30.4372 31.1656 30.6267Z" fill="white"/>
</g>
</svg>
