<svg width="48" height="48" viewBox="0 0 48 48" fill="none" xmlns="http://www.w3.org/2000/svg">
<path d="M41.1384 47.2886L7.90766 45.627C7.4342 45.6033 6.988 45.3984 6.6615 45.0547C6.335 44.711 6.15322 44.2549 6.15381 43.7809V6.59564C6.1538 6.13797 6.3238 5.69661 6.63081 5.35719C6.93783 5.01777 7.35997 4.80449 7.81535 4.75872L41.0461 1.2418C41.3027 1.21601 41.5618 1.24426 41.8068 1.32472C42.0518 1.40518 42.2772 1.53606 42.4685 1.70894C42.6598 1.88182 42.8128 2.09286 42.9176 2.32847C43.0224 2.56408 43.0766 2.81902 43.0769 3.07687V45.4443C43.0767 45.6944 43.0257 45.9418 42.927 46.1716C42.8283 46.4014 42.6839 46.6087 42.5026 46.781C42.3213 46.9533 42.1069 47.087 41.8724 47.1739C41.6379 47.2608 41.3882 47.3011 41.1384 47.2886Z" fill="#FF4081"/>
<path d="M32.0002 9.57541L32.3509 1.74402L39.0876 1.23633L39.3829 9.30402C39.3844 9.4408 39.3316 9.5726 39.2361 9.67053C39.1406 9.76845 39.0102 9.82454 38.8734 9.82648C38.7479 9.82817 38.6255 9.78716 38.5263 9.71017L35.9195 7.72925L32.8402 10C32.7283 10.0812 32.5893 10.116 32.4523 10.0971C32.3154 10.0782 32.1911 10.007 32.1054 9.89848C32.0336 9.80644 31.9963 9.6921 32.0002 9.57541ZM28.0715 21.8468C28.0715 22.7459 34.4371 22.3083 35.2937 21.6733C35.2937 15.5366 31.8414 12.3077 25.5128 12.3077C19.1971 12.3077 15.6451 15.5828 15.6451 20.4973C15.6451 29.0671 27.7577 29.2388 27.7577 33.9114C27.7914 34.199 27.7584 34.4905 27.6614 34.7633C27.5643 35.0362 27.4058 35.283 27.198 35.4847C26.9902 35.6864 26.7388 35.8376 26.4632 35.9265C26.1876 36.0154 25.8953 36.0398 25.6088 35.9976C23.6759 35.9976 22.9152 35.0523 23.0002 31.8585C23.0002 31.1662 15.6451 30.9465 15.4291 31.8585C14.8605 39.6086 19.9079 41.8462 25.6937 41.8462C31.2968 41.8462 35.6925 38.9846 35.6925 33.8302C35.6925 24.6493 23.41 24.8911 23.41 20.3348C23.3928 20.038 23.4421 19.741 23.5545 19.4658C23.6668 19.1905 23.8393 18.9438 24.0593 18.7438C24.2793 18.5438 24.5412 18.3955 24.826 18.3099C25.1107 18.2242 25.4109 18.2033 25.7048 18.2486C26.5872 18.2486 28.2045 18.3963 28.0715 21.8468Z" fill="#FAFAFA"/>
</svg>
