<svg width="48" height="48" viewBox="0 0 48 48" fill="none" xmlns="http://www.w3.org/2000/svg">
<path d="M9.64917 18.1223H44.2568V43.7394H9.64917V18.1223Z" fill="white"/>
<path d="M2.29858 24.0022V45.7352H45.7014V2.26929H2.29858V24.0022ZM37.2743 22.2636C38.3138 22.5052 39.2586 23.0497 39.9896 23.8284C40.3919 24.2479 40.7417 24.715 41.0312 25.2193C41.0312 25.2749 39.1562 26.5441 38.0139 27.2535C37.9722 27.2813 37.8055 27.1005 37.6215 26.8258C37.413 26.4654 37.1167 26.1638 36.7602 25.9492C36.4038 25.7346 35.9989 25.6138 35.5833 25.5983C34.2673 25.5079 33.4201 26.1999 33.4271 27.3369C33.4165 27.62 33.4812 27.9008 33.6146 28.1506C33.9028 28.7522 34.4409 29.1104 36.1284 29.8406C39.2361 31.1793 40.5659 32.0626 41.3923 33.3179C42.3159 34.7088 42.5208 36.9551 41.8958 38.6172C41.2014 40.4254 39.5 41.6529 37.0937 42.0597C35.9947 42.1859 34.8843 42.1742 33.7882 42.0249C32.1082 41.7476 30.5607 40.9398 29.3715 39.7195C28.9722 39.2779 28.1944 38.1269 28.243 38.0435C28.3695 37.9489 28.503 37.864 28.6423 37.7896L30.25 36.8994L31.4965 36.1762L31.7569 36.5621C32.1966 37.1916 32.7558 37.7281 33.4028 38.1408C34.7916 38.8711 36.6875 38.7702 37.625 37.9252C37.9397 37.6156 38.1361 37.2052 38.1799 36.7656C38.2237 36.3259 38.1121 35.8847 37.8646 35.519C37.5173 35.0356 36.8229 34.6288 34.8819 33.7803C32.6423 32.8136 31.6771 32.2156 30.7951 31.2628C30.2447 30.6339 29.8382 29.8922 29.6041 29.0895C29.4297 28.1723 29.4039 27.233 29.5278 26.3077C29.9896 24.1413 31.6111 22.6287 33.9791 22.1801C35.0758 22.0445 36.1867 22.0749 37.2743 22.2706V22.2636ZM27.0868 24.0857V25.8661H21.4514V41.9415H17.4548V25.8626H11.8055V24.1239C11.7878 23.5244 11.8017 22.9243 11.8472 22.3262C11.875 22.2949 15.3194 22.2949 19.4861 22.2949H27.0659L27.0868 24.0857Z" fill="#007ACC"/>
</svg>
