<svg width="48" height="48" viewBox="0 0 48 48" fill="none" xmlns="http://www.w3.org/2000/svg">
<path d="M46.7871 7.32003L25.2464 45.8393C24.8013 46.6347 23.6586 46.6392 23.2075 45.8483L1.23927 7.32453C0.746899 6.46128 1.48377 5.41691 2.46215 5.59128L24.0261 9.44515C24.1638 9.4702 24.3048 9.4702 24.4424 9.44515L45.5549 5.59728C46.5292 5.41991 47.2705 6.45566 46.7871 7.32003Z" fill="url(#paint0_linear_178_310)"/>
<path d="M34.2974 0.536246L18.3577 3.65925C18.2305 3.68411 18.1151 3.75052 18.0297 3.84805C17.9443 3.94559 17.8937 4.06873 17.8859 4.19812L16.9046 20.7611C16.8993 20.8519 16.9152 20.9428 16.9511 21.0264C16.987 21.11 17.0419 21.1841 17.1114 21.2428C17.1809 21.3015 17.2631 21.3432 17.3515 21.3647C17.4399 21.3861 17.5321 21.3867 17.6208 21.3664L22.0593 20.3407C22.1549 20.3188 22.2545 20.3212 22.3489 20.3477C22.4433 20.3742 22.5296 20.424 22.5997 20.4926C22.6699 20.5611 22.7217 20.6461 22.7505 20.7399C22.7793 20.8337 22.784 20.9332 22.7643 21.0292L21.4454 27.4864C21.4253 27.5858 21.4313 27.6887 21.4628 27.785C21.4944 27.8814 21.5504 27.9679 21.6254 28.0362C21.7004 28.1044 21.7919 28.152 21.8908 28.1742C21.9898 28.1965 22.0928 28.1927 22.1898 28.1632L24.9303 27.3296C25.3552 27.2006 25.7639 27.5741 25.6747 28.0091L23.5784 38.1517C23.4479 38.7862 24.2917 39.132 24.6434 38.5882L24.8778 38.2252L37.8678 12.3015C38.0861 11.8665 37.7099 11.3715 37.2341 11.4637L32.6647 12.3457C32.5664 12.3648 32.4648 12.3584 32.3697 12.3269C32.2746 12.2954 32.1892 12.24 32.1217 12.166C32.0542 12.092 32.0068 12.0019 31.9841 11.9044C31.9615 11.8068 31.9643 11.705 31.9923 11.6089L34.9736 1.27312C35.0016 1.17661 35.0043 1.07451 34.9814 0.976659C34.9585 0.878807 34.9108 0.788504 34.8428 0.714456C34.7749 0.640408 34.689 0.585111 34.5935 0.553897C34.4979 0.522683 34.396 0.516604 34.2974 0.536246Z" fill="url(#paint1_linear_178_310)"/>
<defs>
<linearGradient id="paint0_linear_178_310" x1="0.702349" y1="4.21488" x2="27.5125" y2="40.6252" gradientUnits="userSpaceOnUse">
<stop stop-color="#41D1FF"/>
<stop offset="1" stop-color="#BD34FE"/>
</linearGradient>
<linearGradient id="paint1_linear_178_310" x1="22.7887" y1="1.38374" x2="27.6385" y2="34.6531" gradientUnits="userSpaceOnUse">
<stop stop-color="#FFEA83"/>
<stop offset="0.083" stop-color="#FFDD35"/>
<stop offset="1" stop-color="#FFA800"/>
</linearGradient>
</defs>
</svg>
