<svg width="48" height="48" viewBox="0 0 48 48" fill="none" xmlns="http://www.w3.org/2000/svg">
<g clip-path="url(#clip0_178_352)">
<mask id="mask0_178_352" style="mask-type:alpha" maskUnits="userSpaceOnUse" x="-1" y="0" width="49" height="48">
<path fill-rule="evenodd" clip-rule="evenodd" d="M34.0375 47.6722C34.4195 47.8211 34.828 47.8898 35.2377 47.8741C35.6473 47.8583 36.0493 47.7585 36.4188 47.5807L46.3011 42.8254C46.8101 42.5804 47.2395 42.1967 47.54 41.7184C47.8405 41.2402 47.9999 40.6868 47.9999 40.122V7.87837C48 7.31348 47.8406 6.76003 47.5401 6.28171C47.2396 5.80339 46.8101 5.41964 46.3011 5.17462L36.4188 0.419992C35.8603 0.151307 35.2322 0.0628431 34.6213 0.166844C34.0104 0.270845 33.4469 0.562167 33.0089 1.00049L14.0901 18.2602L5.84989 12.0049C5.47811 11.7228 5.01935 11.5797 4.55312 11.6003C4.08689 11.621 3.6426 11.8042 3.29727 12.1181L0.654265 14.5222C0.448296 14.7096 0.283695 14.9378 0.170993 15.1924C0.0582907 15.447 -3.17825e-05 15.7223 -0.000243562 16.0007C-0.000455341 16.2792 0.0574483 16.5546 0.169763 16.8093C0.282078 17.0641 0.446331 17.2926 0.652015 17.4802L7.79839 24L0.65239 30.5201C0.446818 30.7078 0.282663 30.9363 0.170418 31.191C0.0581732 31.4457 0.000307209 31.7211 0.000518966 31.9994C0.000730724 32.2778 0.0590156 32.553 0.171648 32.8076C0.284281 33.0621 0.448783 33.2904 0.65464 33.4777L3.29764 35.8819C3.64293 36.1958 4.0872 36.3791 4.55343 36.3998C5.01965 36.4206 5.47845 36.2775 5.85027 35.9955L14.0905 29.7405L33.0093 46.9999C33.3021 47.2926 33.6519 47.5215 34.0375 47.6722ZM36.007 13.1036L21.6524 24L36.0074 34.8967L36.007 13.1036Z" fill="white"/>
</mask>
<g mask="url(#mask0_178_352)">
<path d="M46.3015 5.18249L36.4112 0.419992C35.8527 0.150962 35.2242 0.0623109 34.613 0.166319C34.0018 0.270328 33.438 0.561847 32.9999 1.00049L0.623121 30.5201C0.417395 30.7077 0.253101 30.9362 0.140757 31.1909C0.028412 31.4456 -0.0295081 31.721 -0.0292963 31.9994C-0.0290845 32.2778 0.0292546 32.5531 0.141986 32.8077C0.254718 33.0623 0.419359 33.2905 0.625371 33.4777L3.26987 35.8819C3.61526 36.1962 4.05983 36.3797 4.52639 36.4005C4.99295 36.4212 5.45206 36.2779 5.824 35.9955L44.8131 6.41737C46.1211 5.42512 47.9999 6.35812 47.9999 7.99987V7.88512C47.9999 7.32039 47.8405 6.76713 47.5401 6.28896C47.2396 5.81079 46.8103 5.42751 46.3015 5.18249Z" fill="#0065A9"/>
<g filter="url(#filter0_d_178_352)">
<path d="M46.3015 42.8178L36.4112 47.5796C35.8527 47.8487 35.2243 47.9375 34.6131 47.8336C34.0019 47.7297 33.4381 47.4384 32.9999 46.9998L0.623121 17.4798C0.417395 17.2923 0.253101 17.0638 0.140757 16.8091C0.028412 16.5543 -0.0295081 16.2789 -0.0292963 16.0005C-0.0290845 15.7221 0.0292546 15.4468 0.141986 15.1923C0.254718 14.9377 0.419359 14.7095 0.625371 14.5222L3.26987 12.1181C3.61526 11.8037 4.05983 11.6203 4.52639 11.5995C4.99295 11.5788 5.45206 11.722 5.824 12.0045L44.8131 41.5822C46.1211 42.5748 47.9999 41.6418 47.9999 40.0001V40.1148C47.9999 40.6796 47.8405 41.2328 47.5401 41.711C47.2396 42.1892 46.8103 42.5728 46.3015 42.8178Z" fill="#007ACC"/>
</g>
<g filter="url(#filter1_d_178_352)">
<path d="M36.4117 47.5808C35.853 47.8493 35.2246 47.9376 34.6134 47.8336C34.0022 47.7295 33.4385 47.4382 33 46.9999C34.107 48.1069 36 47.3228 36 45.7571V2.24252C36 0.676895 34.107 -0.10723 33 1.00015C33.4385 0.561841 34.0022 0.270534 34.6134 0.166478C35.2246 0.0624221 35.853 0.150755 36.4117 0.41927L46.3001 5.17502C46.8093 5.41988 47.239 5.80356 47.5398 6.28189C47.8405 6.76022 48 7.31376 48 7.87877V40.122C48 40.687 47.8405 41.2406 47.5398 41.7189C47.239 42.1972 46.8093 42.5809 46.3001 42.8258L36.4117 47.5808Z" fill="#1F9CF0"/>
</g>
<path opacity="0.25" fill-rule="evenodd" clip-rule="evenodd" d="M34.0087 47.6722C34.3906 47.8211 34.799 47.8897 35.2086 47.874C35.6182 47.8583 36.0202 47.7584 36.3895 47.5807L46.2719 42.8254C46.7809 42.5803 47.2104 42.1966 47.5109 41.7183C47.8114 41.24 47.9708 40.6865 47.9707 40.1216V7.87837C47.9708 7.31348 47.8114 6.76003 47.5109 6.28171C47.2104 5.80339 46.7809 5.41964 46.2719 5.17462L36.3895 0.419992C35.8311 0.151307 35.203 0.0628431 34.5921 0.166844C33.9812 0.270845 33.4177 0.562167 32.9797 1.00049L14.0609 18.2602L5.82066 12.0052C5.44888 11.7231 4.99011 11.58 4.52388 11.6007C4.05766 11.6214 3.61336 11.8046 3.26803 12.1185L0.625031 14.5226C0.419113 14.71 0.254558 14.9383 0.141889 15.1928C0.0292199 15.4474 -0.0290845 15.7227 -0.0292963 16.0011C-0.0295081 16.2795 0.0283775 16.5549 0.140659 16.8097C0.252941 17.0644 0.417148 17.2929 0.622781 17.4806L7.76916 24L0.623156 30.5197C0.417472 30.7074 0.253218 30.9359 0.140904 31.1907C0.0285887 31.4454 -0.0293149 31.7208 -0.0291031 31.9992C-0.0288913 32.2777 0.0294312 32.553 0.142133 32.8076C0.254836 33.0621 0.419436 33.2904 0.625406 33.4777L3.26841 35.8819C3.61369 36.1958 4.05796 36.3791 4.52419 36.3998C4.99042 36.4206 5.44921 36.2775 5.82103 35.9955L14.0617 29.7401L32.9804 46.9999C33.2731 47.2925 33.6232 47.5215 34.0087 47.6722ZM35.9782 13.1032L21.6232 24L35.9782 34.8964V13.1032Z" fill="url(#paint0_linear_178_352)"/>
</g>
</g>
<defs>
<filter id="filter0_d_178_352" x="-1.07105" y="10.5558" width="50.1126" height="38.3618" filterUnits="userSpaceOnUse" color-interpolation-filters="sRGB">
<feFlood flood-opacity="0" result="BackgroundImageFix"/>
<feColorMatrix in="SourceAlpha" type="matrix" values="0 0 0 0 0 0 0 0 0 0 0 0 0 0 0 0 0 0 127 0" result="hardAlpha"/>
<feOffset/>
<feGaussianBlur stdDeviation="0.520875"/>
<feColorMatrix type="matrix" values="0 0 0 0 0 0 0 0 0 0 0 0 0 0 0 0 0 0 0.25 0"/>
<feBlend mode="overlay" in2="BackgroundImageFix" result="effect1_dropShadow_178_352"/>
<feBlend mode="normal" in="SourceGraphic" in2="effect1_dropShadow_178_352" result="shape"/>
</filter>
<filter id="filter1_d_178_352" x="31.9583" y="-0.917727" width="17.0835" height="49.8355" filterUnits="userSpaceOnUse" color-interpolation-filters="sRGB">
<feFlood flood-opacity="0" result="BackgroundImageFix"/>
<feColorMatrix in="SourceAlpha" type="matrix" values="0 0 0 0 0 0 0 0 0 0 0 0 0 0 0 0 0 0 127 0" result="hardAlpha"/>
<feOffset/>
<feGaussianBlur stdDeviation="0.520875"/>
<feColorMatrix type="matrix" values="0 0 0 0 0 0 0 0 0 0 0 0 0 0 0 0 0 0 0.25 0"/>
<feBlend mode="overlay" in2="BackgroundImageFix" result="effect1_dropShadow_178_352"/>
<feBlend mode="normal" in="SourceGraphic" in2="effect1_dropShadow_178_352" result="shape"/>
</filter>
<linearGradient id="paint0_linear_178_352" x1="23.9707" y1="0.123742" x2="23.9707" y2="47.8762" gradientUnits="userSpaceOnUse">
<stop stop-color="white"/>
<stop offset="1" stop-color="white" stop-opacity="0"/>
</linearGradient>
<clipPath id="clip0_178_352">
<rect width="48" height="48" fill="white"/>
</clipPath>
</defs>
</svg>
