<svg width="48" height="48" viewBox="0 0 48 48" fill="none" xmlns="http://www.w3.org/2000/svg">
<g clip-path="url(#clip0_245_145)">
<path fill-rule="evenodd" clip-rule="evenodd" d="M24 0C37.2339 0 48 10.7661 48 24C48 37.2339 37.2339 48 24 48C10.7661 48 0 37.2339 0 24C0 10.7661 10.7661 0 24 0ZM34.9176 15.8308H12.0536C11.2776 15.8308 10.6669 16.4415 10.6669 17.2175C10.6669 17.9961 11.2776 18.6068 12.0536 18.6068H18.9363V40.8015C18.9363 41.5801 19.5443 42.1908 20.3229 42.1908C21.0989 42.1908 21.7096 41.5801 21.7096 40.8015V31.4255H25.3709V40.8015C25.3709 41.5801 25.9816 42.1908 26.7576 42.1908C27.5363 42.1908 28.1469 41.5801 28.1469 40.8015V18.5508H35.0296C35.8056 18.5508 36.4163 17.9401 36.4163 17.1641C36.2483 16.4415 35.6403 15.8308 34.9176 15.8308ZM23.4853 7.95055C21.648 7.95055 20.1547 9.4412 20.1547 11.2812C20.1547 13.1185 21.648 14.6092 23.4853 14.6092C25.3253 14.6092 26.816 13.1185 26.816 11.2812C26.816 9.4412 25.3253 7.95055 23.4853 7.95055Z" fill="black"/>
</g>
<defs>
<clipPath id="clip0_245_145">
<rect width="48" height="48" fill="white"/>
</clipPath>
</defs>
</svg>
