<svg width="48" height="48" viewBox="0 0 48 48" fill="none" xmlns="http://www.w3.org/2000/svg">
<path d="M43.9839 36.7875L24.8401 47.625V39.1837L36.7501 32.625L43.9839 36.7875ZM45.2964 35.6025V12.9562L38.2914 17.0062V31.56L45.2926 35.5988L45.2964 35.6025ZM4.01636 36.7875L23.1414 47.6175V39.1837L11.2276 32.625L4.01636 36.7875ZM2.70386 35.6025V12.9562L9.70886 17.0062V31.56L2.70386 35.6025ZM3.52511 11.49L23.1601 0.375V8.535L10.5789 15.4537L10.4776 15.51L3.52511 11.49ZM44.4676 11.49L24.8401 0.375V8.535L37.4214 15.45L37.5226 15.5062L44.4751 11.49H44.4676Z" fill="#8ED6FB"/>
<path d="M23.1599 37.2638L11.3887 30.7875V17.97L23.1599 24.75V37.2638ZM24.8399 37.2638L36.6112 30.795V17.97L24.8399 24.75V37.2638ZM12.1874 16.5L23.9999 9.9975L35.8124 16.5L23.9999 23.31L12.1874 16.5Z" fill="#1C78C0"/>
</svg>
