<svg width="48" height="48" viewBox="0 0 48 48" fill="none" xmlns="http://www.w3.org/2000/svg">
<g clip-path="url(#clip0_177_301)">
<path d="M3.408 24C3.408 21.024 4.056 18.192 5.184 15.6L15.024 42.528C11.5397 40.8467 8.60092 38.2158 6.54592 34.938C4.49093 31.6602 3.40322 27.8687 3.408 24ZM37.896 22.968C37.896 24.72 37.2 26.76 36.336 29.616L34.272 36.48L26.832 14.4L29.184 14.16C30.312 14.016 30.168 12.384 29.064 12.456C29.064 12.456 25.728 12.72 23.568 12.72L18.144 12.456C17.04 12.384 16.92 14.088 18 14.16L20.184 14.4L23.4 23.136L18.888 36.648L11.376 14.4L13.752 14.16C14.856 14.016 14.712 12.384 13.608 12.456C13.608 12.456 10.272 12.72 8.112 12.72L6.792 12.696C10.488 7.104 16.8 3.408 24 3.408C29.352 3.408 34.248 5.472 37.896 8.808H37.632C35.616 8.808 34.176 10.56 34.176 12.456C34.176 14.16 35.16 15.6 36.192 17.28C36.984 18.648 37.896 20.4 37.896 22.968ZM24.36 25.8L30.696 43.128L30.84 43.416C28.704 44.184 26.4 44.592 24 44.592C21.984 44.592 20.04 44.304 18.192 43.752L24.36 25.8ZM42.072 14.112C43.7312 17.1432 44.598 20.5444 44.592 24C44.592 31.584 40.464 38.232 34.344 41.784L40.632 23.616C41.808 20.688 42.216 18.336 42.216 16.248L42.072 14.112ZM24 0C27.1517 0 30.2726 0.620778 33.1844 1.82689C36.0962 3.033 38.742 4.80083 40.9706 7.02944C43.1992 9.25804 44.967 11.9038 46.1731 14.8156C47.3792 17.7274 48 20.8483 48 24C48 30.3652 45.4714 36.4697 40.9706 40.9706C36.4697 45.4714 30.3652 48 24 48C20.8483 48 17.7274 47.3792 14.8156 46.1731C11.9038 44.967 9.25804 43.1992 7.02944 40.9706C2.52856 36.4697 0 30.3652 0 24C0 17.6348 2.52856 11.5303 7.02944 7.02944C11.5303 2.52856 17.6348 0 24 0ZM24 46.896C36.624 46.896 46.896 36.624 46.896 24C46.896 11.376 36.624 1.104 24 1.104C11.376 1.104 1.104 11.376 1.104 24C1.104 36.624 11.376 46.896 24 46.896Z" fill="black"/>
</g>
<defs>
<clipPath id="clip0_177_301">
<rect width="48" height="48" fill="white"/>
</clipPath>
</defs>
</svg>
